<svg width="650" height="477" viewBox="0 0 650 477" fill="none" xmlns="http://www.w3.org/2000/svg">
<g id="Banner-Home">
<path id="Vector" d="M267.236 85.9608L50.9273 467.114H608.615L403.425 85.9608H267.236Z" fill="#6DC8C2"/>
<g id="persen">
<path id="Vector_2" d="M563.433 363.073H517.247C515.064 363.071 512.971 362.203 511.428 360.66C509.885 359.116 509.017 357.023 509.015 354.841V308.614C509.017 306.431 509.885 304.338 511.428 302.795C512.971 301.251 515.064 300.383 517.247 300.381H563.433C565.616 300.383 567.709 301.251 569.252 302.795C570.796 304.338 571.664 306.431 571.665 308.614V354.841C571.664 357.023 570.796 359.116 569.252 360.66C567.709 362.203 565.616 363.071 563.433 363.073ZM517.247 303.098C515.785 303.1 514.383 303.682 513.349 304.716C512.315 305.75 511.734 307.151 511.732 308.614V354.841C511.734 356.303 512.315 357.705 513.349 358.739C514.383 359.772 515.785 360.354 517.247 360.356H563.433C564.896 360.354 566.297 359.772 567.331 358.739C568.365 357.705 568.947 356.303 568.949 354.841V308.614C568.947 307.151 568.365 305.75 567.331 304.716C566.297 303.682 564.896 303.1 563.433 303.098H517.247Z" fill="black"/>
<path id="Vector_3" d="M530.023 326.667C528.621 326.667 527.25 326.251 526.083 325.472C524.917 324.693 524.008 323.586 523.472 322.29C522.935 320.994 522.795 319.568 523.068 318.193C523.342 316.817 524.017 315.554 525.009 314.562C526.001 313.57 527.264 312.895 528.64 312.622C530.015 312.348 531.441 312.488 532.737 313.025C534.032 313.562 535.14 314.471 535.919 315.637C536.698 316.803 537.114 318.174 537.114 319.576C537.112 321.456 536.364 323.259 535.035 324.588C533.706 325.918 531.903 326.665 530.023 326.667ZM530.023 315.202C529.158 315.202 528.312 315.459 527.593 315.939C526.874 316.42 526.313 317.103 525.982 317.902C525.651 318.702 525.564 319.581 525.733 320.43C525.902 321.278 526.318 322.057 526.93 322.669C527.542 323.281 528.321 323.698 529.17 323.866C530.018 324.035 530.898 323.948 531.697 323.617C532.496 323.286 533.179 322.726 533.66 322.006C534.141 321.287 534.397 320.441 534.397 319.576C534.39 318.42 533.926 317.314 533.107 316.498C532.287 315.683 531.179 315.224 530.023 315.223V315.202Z" fill="black"/>
<path id="Vector_4" d="M550.624 348.667C549.22 348.667 547.847 348.25 546.681 347.469C545.514 346.689 544.605 345.579 544.069 344.281C543.534 342.984 543.395 341.556 543.671 340.18C543.948 338.803 544.627 337.54 545.622 336.55C546.617 335.559 547.883 334.887 549.261 334.617C550.639 334.347 552.066 334.492 553.361 335.034C554.656 335.576 555.761 336.49 556.536 337.661C557.311 338.831 557.721 340.206 557.715 341.61C557.704 343.484 556.952 345.278 555.624 346.6C554.295 347.922 552.498 348.665 550.624 348.667ZM550.624 337.202C549.758 337.202 548.913 337.458 548.193 337.939C547.474 338.419 546.914 339.103 546.582 339.902C546.251 340.701 546.165 341.581 546.334 342.429C546.502 343.277 546.919 344.057 547.531 344.669C548.142 345.28 548.922 345.697 549.77 345.866C550.619 346.035 551.498 345.948 552.298 345.617C553.097 345.286 553.78 344.725 554.261 344.006C554.741 343.286 554.998 342.441 554.998 341.576C554.996 340.416 554.535 339.305 553.715 338.485C552.895 337.665 551.783 337.203 550.624 337.202Z" fill="black"/>
<path id="Vector_5" d="M526.776 352.878C526.536 352.875 526.301 352.807 526.097 352.681C525.79 352.495 525.568 352.195 525.482 351.846C525.395 351.497 525.45 351.128 525.635 350.82L549.482 311.229C549.575 311.076 549.696 310.942 549.84 310.836C549.984 310.73 550.147 310.654 550.321 310.611C550.494 310.568 550.674 310.56 550.851 310.586C551.028 310.613 551.197 310.674 551.35 310.767C551.503 310.859 551.636 310.981 551.742 311.124C551.848 311.268 551.925 311.431 551.968 311.605C552.011 311.778 552.019 311.959 551.992 312.135C551.966 312.312 551.904 312.482 551.812 312.635L527.965 352.219C527.842 352.423 527.668 352.592 527.459 352.708C527.25 352.823 527.015 352.882 526.776 352.878Z" fill="black"/>
</g>
<g id="card-baju">
<path id="Vector_6" d="M637.101 265.823H490.33C487.087 265.823 483.978 264.535 481.685 262.243C479.392 259.95 478.104 256.84 478.104 253.598V138.947C478.104 135.704 479.392 132.594 481.685 130.302C483.978 128.009 487.087 126.721 490.33 126.721H637.101C640.343 126.721 643.453 128.009 645.746 130.302C648.038 132.594 649.327 135.704 649.327 138.947V253.611C649.323 256.851 648.033 259.957 645.741 262.247C643.449 264.537 640.341 265.823 637.101 265.823ZM490.33 129.451C487.808 129.451 485.389 130.453 483.606 132.236C481.823 134.02 480.821 136.438 480.821 138.96V253.611C480.821 256.133 481.823 258.552 483.606 260.335C485.389 262.118 487.808 263.12 490.33 263.12H637.101C639.623 263.12 642.041 262.118 643.825 260.335C645.608 258.552 646.61 256.133 646.61 253.611V138.947C646.61 136.425 645.608 134.006 643.825 132.223C642.041 130.439 639.623 129.438 637.101 129.438L490.33 129.451Z" fill="black"/>
<path id="Vector_7" d="M599.805 156.436H586.146C584.263 156.436 582.737 157.963 582.737 159.846V173.505C582.737 175.388 584.263 176.915 586.146 176.915H599.805C601.688 176.915 603.215 175.388 603.215 173.505V159.846C603.215 157.963 601.688 156.436 599.805 156.436Z" fill="#FFC1EB"/>
<path id="Vector_8" d="M629.779 156.436H616.12C614.237 156.436 612.71 157.963 612.71 159.846V173.505C612.71 175.388 614.237 176.915 616.12 176.915H629.779C631.662 176.915 633.189 175.388 633.189 173.505V159.846C633.189 157.963 631.662 156.436 629.779 156.436Z" fill="#FFC1EB"/>
<path id="Vector_9" d="M633.182 193.786H584.041C583.68 193.786 583.335 193.643 583.08 193.388C582.825 193.133 582.682 192.788 582.682 192.427C582.682 192.067 582.825 191.721 583.08 191.467C583.335 191.212 583.68 191.069 584.041 191.069H633.182C633.542 191.069 633.887 191.212 634.142 191.467C634.397 191.721 634.54 192.067 634.54 192.427C634.54 192.788 634.397 193.133 634.142 193.388C633.887 193.643 633.542 193.786 633.182 193.786Z" fill="black"/>
<path id="Vector_10" d="M633.182 207.608H584.041C583.68 207.608 583.335 207.465 583.08 207.21C582.825 206.955 582.682 206.61 582.682 206.25C582.682 205.889 582.825 205.544 583.08 205.289C583.335 205.034 583.68 204.891 584.041 204.891H633.182C633.542 204.891 633.887 205.034 634.142 205.289C634.397 205.544 634.54 205.889 634.54 206.25C634.54 206.61 634.397 206.955 634.142 207.21C633.887 207.465 633.542 207.608 633.182 207.608Z" fill="black"/>
<path id="Vector_11" d="M618.484 222.374H584.041C583.68 222.374 583.335 222.231 583.08 221.976C582.825 221.721 582.682 221.376 582.682 221.015C582.682 220.655 582.825 220.31 583.08 220.055C583.335 219.8 583.68 219.657 584.041 219.657H618.484C618.844 219.657 619.189 219.8 619.444 220.055C619.699 220.31 619.842 220.655 619.842 221.015C619.842 221.376 619.699 221.721 619.444 221.976C619.189 222.231 618.844 222.374 618.484 222.374Z" fill="black"/>
<g id="baju">
<path id="Vector_12" d="M556.818 153.583H504.383C500.992 153.583 498.243 156.332 498.243 159.724V239.714C498.243 243.105 500.992 245.854 504.383 245.854H556.818C560.209 245.854 562.958 243.105 562.958 239.714V159.724C562.958 156.332 560.209 153.583 556.818 153.583Z" fill="#6DC8C2"/>
<path id="Vector_13" d="M538.459 180.405V183.801C538.458 185.503 537.797 187.139 536.616 188.364C535.434 189.589 533.823 190.308 532.122 190.369C531.721 190.369 531.334 190.369 530.947 190.369C529.2 190.314 527.543 189.581 526.328 188.324C525.113 187.067 524.435 185.386 524.44 183.638V180.412C524.44 179.382 524.031 178.393 523.302 177.665C522.573 176.936 521.585 176.527 520.555 176.527C519.524 176.527 518.536 176.936 517.808 177.665C517.079 178.393 516.67 179.382 516.67 180.412V215.684C516.67 216.335 516.798 216.979 517.047 217.581C517.296 218.182 517.662 218.729 518.122 219.19C518.582 219.65 519.129 220.015 519.73 220.264C520.332 220.514 520.977 220.642 521.628 220.642H541.271C541.922 220.642 542.567 220.514 543.168 220.264C543.77 220.015 544.316 219.65 544.777 219.19C545.237 218.729 545.602 218.182 545.852 217.581C546.101 216.979 546.229 216.335 546.229 215.684V180.405C546.229 179.375 545.82 178.387 545.091 177.658C544.362 176.929 543.374 176.52 542.344 176.52C541.313 176.52 540.325 176.929 539.597 177.658C538.868 178.387 538.459 179.375 538.459 180.405Z" fill="white"/>
</g>
</g>
<g id="glas">
<path id="Vector_14" d="M457.11 386.118C457.11 382.838 445.482 380.175 431.13 380.175C416.778 380.175 405.15 382.838 405.15 386.118L402.358 415.433C408.865 414.374 417.98 414.306 426.022 419.305C428.889 421.14 432.054 422.462 435.375 423.21C440.965 424.385 449.38 424.664 459.507 420.371L457.11 386.118Z" fill="white"/>
<path id="Vector_15" d="M442.703 425.316C440.146 425.319 437.594 425.059 435.09 424.542C431.619 423.757 428.31 422.378 425.309 420.466C417.498 415.63 408.634 415.793 402.576 416.778L400.837 417.063L403.798 386.051C403.948 380.338 421.716 378.824 431.13 378.824C440.544 378.824 458.353 380.325 458.468 386.064L460.927 421.247L460.03 421.621C454.564 424.011 448.669 425.268 442.703 425.316ZM409.286 413.498C415.425 413.388 421.472 415 426.742 418.15C429.471 419.9 432.484 421.162 435.646 421.879C440.618 422.925 448.49 423.333 458.06 419.488L455.751 386.119C455.751 385.018 448.348 381.534 431.13 381.534C413.912 381.534 406.508 385.018 406.508 386.119V386.248L403.873 413.844C405.668 413.616 407.476 413.5 409.286 413.498Z" fill="black"/>
<path id="Vector_16" d="M461.3 417.967C450.521 422.259 441.556 421.981 435.606 420.806C432.099 420.059 428.739 418.74 425.662 416.9C417.056 411.894 407.391 411.969 400.463 413.022L397.631 440.917C397.269 444.47 397.656 448.059 398.768 451.453C399.88 454.847 401.691 457.97 404.085 460.62C406.48 463.27 409.403 465.388 412.667 466.838C415.931 468.288 419.462 469.037 423.034 469.037H437.589C441.102 469.037 444.577 468.312 447.798 466.908C451.018 465.504 453.914 463.451 456.304 460.877C458.695 458.303 460.529 455.263 461.691 451.948C462.853 448.633 463.319 445.113 463.059 441.61L461.3 417.967Z" fill="#FFBB45"/>
<path id="Vector_17" d="M429.065 451.411H428.943C428.584 451.378 428.254 451.205 428.023 450.928C427.793 450.652 427.681 450.295 427.713 449.937L436.169 356.342C436.291 354.92 436.943 353.595 437.996 352.633C439.05 351.67 440.427 351.139 441.854 351.146H461.973C462.333 351.146 462.679 351.289 462.933 351.544C463.188 351.798 463.331 352.144 463.331 352.504C463.331 352.864 463.188 353.21 462.933 353.465C462.679 353.719 462.333 353.863 461.973 353.863H441.854C441.108 353.861 440.388 354.139 439.836 354.642C439.284 355.145 438.941 355.836 438.873 356.579L430.417 450.175C430.386 450.512 430.23 450.826 429.98 451.055C429.73 451.284 429.404 451.411 429.065 451.411Z" fill="black"/>
<path id="Vector_18" d="M431.075 393.23C430.294 393.23 429.513 393.23 428.739 393.189C420.377 392.873 412.163 390.89 404.579 387.355C404.417 387.279 404.272 387.173 404.151 387.041C404.031 386.91 403.937 386.755 403.876 386.588C403.815 386.42 403.787 386.242 403.795 386.063C403.802 385.885 403.845 385.71 403.921 385.548C403.996 385.386 404.102 385.241 404.234 385.12C404.366 384.999 404.52 384.905 404.687 384.844C404.855 384.783 405.033 384.756 405.212 384.763C405.39 384.771 405.565 384.814 405.727 384.889C412.976 388.271 420.827 390.169 428.82 390.472C438.364 390.815 447.853 388.902 456.519 384.889C456.681 384.813 456.856 384.769 457.035 384.761C457.214 384.753 457.393 384.78 457.561 384.841C457.73 384.903 457.884 384.996 458.016 385.118C458.148 385.239 458.255 385.385 458.33 385.547C458.405 385.71 458.448 385.886 458.455 386.065C458.462 386.244 458.433 386.423 458.371 386.591C458.309 386.758 458.214 386.912 458.092 387.044C457.97 387.175 457.823 387.28 457.66 387.355C449.326 391.208 440.257 393.212 431.075 393.23Z" fill="black"/>
</g>
<g id="card-bag">
<path id="Vector_19" d="M218.292 270.354H74.1903C71.6684 270.354 69.2497 269.352 67.4664 267.568C65.6832 265.785 64.6813 263.367 64.6813 260.845V168.866C64.6813 166.344 65.6832 163.925 67.4664 162.142C69.2497 160.359 71.6684 159.357 74.1903 159.357H218.292C220.814 159.357 223.232 160.359 225.016 162.142C226.799 163.925 227.801 166.344 227.801 168.866V260.824C227.804 262.075 227.56 263.313 227.083 264.469C226.606 265.625 225.906 266.676 225.023 267.561C224.14 268.446 223.091 269.149 221.936 269.628C220.781 270.107 219.542 270.354 218.292 270.354ZM74.1903 162.053C72.3889 162.053 70.6613 162.769 69.3875 164.043C68.1138 165.316 67.3982 167.044 67.3982 168.845V260.824C67.3982 262.626 68.1138 264.353 69.3875 265.627C70.6613 266.901 72.3889 267.616 74.1903 267.616H218.292C220.093 267.616 221.821 266.901 223.095 265.627C224.368 264.353 225.084 262.626 225.084 260.824V168.866C225.084 167.064 224.368 165.337 223.095 164.063C221.821 162.789 220.093 162.074 218.292 162.074L74.1903 162.053Z" fill="black"/>
<path id="Vector_20" d="M205.346 228.922H144.312C141.39 228.922 139.021 231.291 139.021 234.213V236.135C139.021 239.057 141.39 241.426 144.312 241.426H205.346C208.268 241.426 210.637 239.057 210.637 236.135V234.213C210.637 231.291 208.268 228.922 205.346 228.922Z" fill="#FFBB45"/>
<path id="Vector_21" d="M207.649 197.277H142.01C141.649 197.277 141.304 197.134 141.049 196.879C140.794 196.625 140.651 196.279 140.651 195.919C140.651 195.559 140.794 195.213 141.049 194.958C141.304 194.704 141.649 194.56 142.01 194.56H207.649C208.009 194.56 208.355 194.704 208.609 194.958C208.864 195.213 209.007 195.559 209.007 195.919C209.007 196.279 208.864 196.625 208.609 196.879C208.355 197.134 208.009 197.277 207.649 197.277Z" fill="black"/>
<path id="Vector_22" d="M198.405 212.132H142.03C141.67 212.132 141.324 211.989 141.07 211.734C140.815 211.479 140.672 211.134 140.672 210.773C140.672 210.413 140.815 210.067 141.07 209.813C141.324 209.558 141.67 209.415 142.03 209.415H198.405C198.765 209.415 199.111 209.558 199.365 209.813C199.62 210.067 199.763 210.413 199.763 210.773C199.763 211.134 199.62 211.479 199.365 211.734C199.111 211.989 198.765 212.132 198.405 212.132Z" fill="black"/>
<g id="bag">
<path id="Vector_23" d="M95.3206 198.744C94.9603 198.744 94.6148 198.601 94.36 198.346C94.1053 198.092 93.9621 197.746 93.9621 197.386C93.8467 192.631 95.6194 189.758 97.1273 188.196C98.8081 186.433 101.112 185.397 103.546 185.309C105.923 185.35 108.188 186.326 109.849 188.026C111.391 189.575 113.245 192.455 113.163 197.372C113.163 197.733 113.02 198.078 112.766 198.333C112.511 198.588 112.165 198.731 111.805 198.731C111.445 198.731 111.099 198.588 110.844 198.333C110.59 198.078 110.447 197.733 110.447 197.372C110.494 193.399 109.088 191.157 107.927 189.976C106.77 188.806 105.21 188.121 103.566 188.06C101.861 188.128 100.25 188.859 99.0766 190.098C97.4329 191.796 96.6043 194.295 96.679 197.331C96.679 197.692 96.5359 198.037 96.2811 198.292C96.0264 198.547 95.6808 198.69 95.3206 198.69V198.744Z" fill="black"/>
<path id="Vector_24" d="M120.159 243.124H87.1225C86.313 243.124 85.5126 242.952 84.7753 242.617C84.0379 242.283 83.3806 241.795 82.8474 241.186C82.3141 240.577 81.9173 239.861 81.6835 239.086C81.4497 238.31 81.3844 237.494 81.4919 236.692L86.0969 202.337C86.2811 200.975 86.9533 199.726 87.9888 198.821C89.0243 197.917 90.3528 197.419 91.7276 197.42H114.787C116.14 197.418 117.45 197.901 118.479 198.78C119.508 199.659 120.188 200.878 120.397 202.215L125.783 236.57C125.911 237.381 125.861 238.21 125.637 239C125.413 239.79 125.02 240.522 124.485 241.146C123.95 241.769 123.287 242.269 122.54 242.61C121.793 242.952 120.981 243.127 120.159 243.124Z" fill="#FFC1EB"/>
</g>
</g>
<g id="laptop">
<path id="Vector_25" d="M361.28 468.724H251.485V444.986H361.28C362.796 444.986 364.251 445.588 365.323 446.661C366.396 447.733 366.999 449.188 366.999 450.705V462.998C366.999 463.75 366.852 464.494 366.565 465.189C366.278 465.884 365.857 466.515 365.326 467.047C364.795 467.578 364.164 468 363.47 468.288C362.775 468.576 362.031 468.724 361.28 468.724Z" fill="black"/>
<path id="Vector_26" d="M263.881 468.724H135.197C132.799 468.747 130.457 467.994 128.521 466.578C126.584 465.162 125.157 463.159 124.452 460.866L92.9434 354.039C90.9058 347.118 96.2648 340.224 103.689 340.224H225.05C227.554 340.195 229.995 341.014 231.974 342.548C233.953 344.083 235.355 346.241 235.952 348.674L263.881 468.724Z" fill="black"/>
<path id="Vector_27" d="M170.421 432.434C180.268 432.434 188.25 424.451 188.25 414.604C188.25 404.758 180.268 396.775 170.421 396.775C160.574 396.775 152.592 404.758 152.592 414.604C152.592 424.451 160.574 432.434 170.421 432.434Z" fill="#FFC1EB"/>
<path id="Vector_28" d="M166.502 401.93C166.198 401.93 165.903 401.827 165.664 401.638C165.425 401.45 165.256 401.187 165.185 400.891L163.052 392.156C163.009 391.983 163.002 391.803 163.029 391.626C163.056 391.45 163.118 391.28 163.211 391.128C163.398 390.82 163.7 390.598 164.05 390.513C164.401 390.427 164.771 390.484 165.079 390.672C165.387 390.859 165.608 391.161 165.694 391.511L167.827 400.246C167.869 400.419 167.877 400.6 167.85 400.776C167.823 400.953 167.761 401.122 167.668 401.275C167.576 401.427 167.454 401.56 167.309 401.666C167.165 401.771 167.002 401.847 166.828 401.89C166.722 401.916 166.612 401.93 166.502 401.93Z" fill="#6DC8C2"/>
</g>
<path id="Vector_29" d="M608.615 468.48H70.1762C69.8159 468.48 69.4704 468.337 69.2156 468.082C68.9609 467.827 68.8177 467.482 68.8177 467.121C68.8177 466.761 68.9609 466.416 69.2156 466.161C69.4704 465.906 69.8159 465.763 70.1762 465.763H608.615C608.975 465.763 609.32 465.906 609.575 466.161C609.83 466.416 609.973 466.761 609.973 467.121C609.973 467.482 609.83 467.827 609.575 468.082C609.32 468.337 608.975 468.48 608.615 468.48Z" fill="black"/>
<g id="lamp">
<path id="Vector_30" d="M335.327 103.627C330.751 103.634 326.277 102.283 322.469 99.746C318.661 97.2089 315.692 93.5993 313.936 89.3739C312.18 85.1486 311.718 80.4974 312.606 76.009C313.495 71.5205 315.695 67.3964 318.928 64.1587C322.161 60.9209 326.282 58.7148 330.769 57.8197C335.256 56.9246 339.908 57.3806 344.136 59.13C348.364 60.8795 351.978 63.8437 354.52 67.6477C357.063 71.4517 358.42 75.9244 358.42 80.5C358.411 86.6251 355.976 92.4972 351.649 96.8315C347.321 101.166 341.452 103.609 335.327 103.627ZM335.327 60.0897C331.297 60.0897 327.357 61.2847 324.007 63.5237C320.656 65.7627 318.044 68.945 316.502 72.6683C314.959 76.3916 314.556 80.4886 315.342 84.4413C316.128 88.3939 318.069 92.0246 320.919 94.8743C323.768 97.724 327.399 99.6646 331.352 100.451C335.304 101.237 339.401 100.834 343.125 99.2913C346.848 97.7491 350.03 95.1374 352.269 91.7865C354.508 88.4356 355.703 84.4961 355.703 80.466C355.689 75.0663 353.538 69.8918 349.719 66.0736C345.901 62.2554 340.727 60.104 335.327 60.0897Z" fill="white"/>
<path id="Vector_31" d="M336.285 0H334.376C331.465 0 329.105 2.35976 329.105 5.27068V48.8353C329.105 51.7463 331.465 54.106 334.376 54.106H336.285C339.196 54.106 341.555 51.7463 341.555 48.8353V5.27068C341.555 2.35976 339.196 0 336.285 0Z" fill="black"/>
<path id="Vector_32" d="M334.335 39.0139C319.956 39.231 305.902 43.3198 293.65 50.8499C281.399 58.3801 271.404 69.0732 264.716 81.8042C264.486 82.2383 264.373 82.7243 264.387 83.2152C264.4 83.7061 264.541 84.185 264.795 84.6055C265.048 85.026 265.406 85.3737 265.834 85.6148C266.262 85.8559 266.745 85.9822 267.236 85.9814H403.452C403.942 85.981 404.425 85.8539 404.851 85.6123C405.278 85.3707 405.635 85.0229 405.888 84.6026C406.141 84.1823 406.281 83.7038 406.295 83.2135C406.308 82.7232 406.194 82.2377 405.965 81.8042C399.117 68.773 388.807 57.8834 376.169 50.3339C363.531 42.7843 349.056 38.8673 334.335 39.0139Z" fill="#FFC1EB"/>
<path id="Vector_33" d="M293.488 72.9473C284.549 72.9473 277.261 66.9091 277.153 66.8344C276.877 66.602 276.705 66.2697 276.674 65.9105C276.644 65.5513 276.757 65.1947 276.99 64.9191C277.222 64.6434 277.554 64.4714 277.913 64.4409C278.273 64.4103 278.629 64.5237 278.905 64.756C279.503 65.2587 293.63 76.9003 305.693 64.8375L306.515 64.0157L307.459 64.6949C308.138 65.1839 324.045 76.5675 335.789 64.8308L336.584 64.0293L337.521 64.6677C340.194 66.383 343.122 67.6666 346.194 68.4713C352.545 70.0743 357.802 68.8517 361.816 64.8308L362.659 63.9885L363.603 64.7085C364.234 65.1907 379.272 76.4317 390.88 64.8308C391.138 64.5961 391.476 64.4697 391.825 64.4777C392.173 64.4857 392.506 64.6274 392.753 64.8735C393 65.1197 393.142 65.4514 393.152 65.7999C393.161 66.1485 393.036 66.4873 392.802 66.7461C381.296 78.252 366.741 70.0403 362.917 67.5272C358.312 71.6025 352.301 72.8387 345.447 71.0863C342.453 70.2934 339.584 69.0863 336.923 67.5C325.377 78.0075 310.672 69.952 306.814 67.5C302.392 71.5685 297.753 72.9473 293.488 72.9473Z" fill="#FB6D6D"/>
</g>
<g id="she">
<path id="Vector_34" d="M448.694 253.55C451.67 247.518 453.236 240.889 453.273 234.164C453.31 227.439 451.817 220.793 448.907 214.729C445.997 208.666 441.747 203.343 436.477 199.164C431.208 194.985 425.057 192.059 418.49 190.607C415.661 189.988 413.08 188.544 411.073 186.457V186.423C407.228 182.402 406.569 178.796 401.115 167.867C400.531 166.685 400.042 165.734 399.757 165.191L354.324 182.81L366.639 220.459C364.106 228.408 363.866 236.911 365.947 244.99C368.028 253.07 372.344 260.399 378.402 266.137C384.459 271.874 392.011 275.787 400.192 277.427C408.372 279.067 416.849 278.367 424.65 275.407C425.023 279.135 426.424 282.687 428.698 285.666C430.971 288.644 434.027 290.933 437.525 292.276C441.023 293.619 444.826 293.965 448.508 293.273C452.191 292.582 455.61 290.881 458.382 288.361C461.155 285.84 463.173 282.599 464.211 278.999C465.25 275.398 465.268 271.58 464.263 267.971C463.258 264.361 461.271 261.101 458.522 258.554C455.773 256.008 452.37 254.276 448.694 253.55Z" fill="black"/>
<path id="Vector_35" d="M315.018 276.473C327.262 276.473 337.188 266.548 337.188 254.304C337.188 242.06 327.262 232.134 315.018 232.134C302.775 232.134 292.849 242.06 292.849 254.304C292.849 266.548 302.775 276.473 315.018 276.473Z" fill="black"/>
<path id="Vector_36" d="M386.322 195.749C386.343 191.849 384.827 188.099 382.103 185.309C379.379 182.519 375.665 180.913 371.767 180.84L370.85 170.856C370.58 167.689 369.689 164.607 368.226 161.786C366.764 158.965 364.759 156.46 362.327 154.415C359.894 152.37 357.082 150.825 354.052 149.869C351.021 148.913 347.832 148.564 344.666 148.842L307.887 152.272C303.072 152.75 298.642 155.117 295.57 158.856C292.498 162.594 291.033 167.398 291.497 172.214L295.573 217.137C295.894 220.909 296.957 224.581 298.699 227.942C300.442 231.303 302.831 234.287 305.729 236.723C308.627 239.159 311.977 240.999 315.588 242.139C319.198 243.278 322.998 243.693 326.769 243.362L328.474 243.199L330.776 268.098L379.36 263.575L376.643 234.084H376.603L374.443 210.372C377.806 209.68 380.826 207.845 382.991 205.18C385.156 202.515 386.333 199.183 386.322 195.749Z" fill="white"/>
<path id="Vector_37" d="M371.407 202.853C370.266 202.853 369.151 202.515 368.203 201.881C367.255 201.248 366.516 200.347 366.079 199.293C365.643 198.24 365.528 197.08 365.751 195.962C365.973 194.843 366.523 193.816 367.329 193.009C368.136 192.203 369.163 191.654 370.282 191.431C371.4 191.209 372.56 191.323 373.613 191.759C374.667 192.196 375.568 192.935 376.201 193.883C376.835 194.831 377.173 195.946 377.173 197.087C377.171 198.616 376.563 200.081 375.482 201.162C374.401 202.243 372.936 202.851 371.407 202.853ZM371.407 194.023C370.804 194.023 370.214 194.202 369.712 194.537C369.211 194.873 368.82 195.349 368.589 195.906C368.358 196.463 368.298 197.077 368.416 197.668C368.533 198.26 368.824 198.803 369.25 199.23C369.677 199.656 370.22 199.947 370.812 200.064C371.403 200.182 372.017 200.121 372.574 199.891C373.131 199.66 373.607 199.269 373.942 198.767C374.278 198.266 374.456 197.676 374.456 197.073C374.451 196.267 374.128 195.496 373.556 194.927C372.985 194.359 372.213 194.039 371.407 194.037V194.023Z" fill="black"/>
<path id="Vector_38" d="M328.372 243.239L357.299 239.646C357.485 239.623 357.674 239.666 357.83 239.769C357.987 239.872 358.102 240.028 358.154 240.208C358.207 240.388 358.193 240.581 358.116 240.752C358.039 240.923 357.904 241.061 357.734 241.141L329.418 254.67L328.372 243.239Z" fill="black"/>
<path id="Vector_39" d="M367.155 199.593C366.836 199.599 366.525 199.493 366.277 199.293C366.029 199.093 365.858 198.812 365.796 198.499C365.484 196.959 365.582 195.363 366.081 193.872C366.579 192.381 367.46 191.046 368.635 190.003C369.771 189.044 371.12 188.372 372.569 188.043C374.017 187.713 375.524 187.735 376.963 188.108C377.309 188.204 377.603 188.434 377.78 188.748C377.957 189.061 378.003 189.432 377.907 189.778C377.81 190.125 377.58 190.419 377.266 190.596C376.953 190.773 376.583 190.819 376.236 190.723C375.237 190.471 374.192 190.458 373.187 190.685C372.182 190.911 371.244 191.371 370.449 192.027C369.631 192.753 369.018 193.683 368.672 194.721C368.327 195.759 368.26 196.87 368.479 197.943C368.515 198.118 368.516 198.298 368.481 198.474C368.447 198.65 368.378 198.817 368.279 198.966C368.18 199.114 368.052 199.242 367.904 199.342C367.755 199.441 367.588 199.511 367.413 199.545C367.328 199.568 367.242 199.584 367.155 199.593Z" fill="black"/>
<path id="Vector_40" d="M300.164 200.259C301.751 200.259 303.037 198.972 303.037 197.386C303.037 195.799 301.751 194.513 300.164 194.513C298.577 194.513 297.291 195.799 297.291 197.386C297.291 198.972 298.577 200.259 300.164 200.259Z" fill="black"/>
<path id="Vector_41" d="M330.817 196.707C332.404 196.707 333.69 195.42 333.69 193.833C333.69 192.247 332.404 190.96 330.817 190.96C329.23 190.96 327.944 192.247 327.944 193.833C327.944 195.42 329.23 196.707 330.817 196.707Z" fill="black"/>
<path id="Vector_42" d="M312.614 208.844C312.506 208.844 312.399 208.831 312.295 208.803C310.128 208.28 307.887 207.493 307.73 205.679C307.714 204.991 307.971 204.325 308.444 203.825C308.579 203.648 308.736 203.444 308.905 203.18C309.54 202.163 309.861 200.982 309.829 199.784L309.768 187.259C309.768 186.899 309.911 186.553 310.166 186.298C310.421 186.044 310.766 185.9 311.127 185.9C311.487 185.9 311.832 186.044 312.087 186.298C312.342 186.553 312.485 186.899 312.485 187.259L312.546 199.784C312.564 201.486 312.093 203.157 311.188 204.599C310.97 204.932 310.794 205.176 310.637 205.38C311.358 205.731 312.121 205.989 312.906 206.148C313.233 206.222 313.521 206.415 313.715 206.689C313.908 206.964 313.993 207.3 313.954 207.633C313.914 207.966 313.752 208.273 313.5 208.494C313.248 208.715 312.922 208.835 312.587 208.831L312.614 208.844Z" fill="black"/>
<path id="Vector_43" d="M317.287 220.805C315.451 220.779 313.643 220.353 311.989 219.555C311.669 219.39 311.427 219.105 311.316 218.762C311.206 218.418 311.237 218.045 311.402 217.725C311.567 217.404 311.852 217.162 312.195 217.052C312.539 216.942 312.912 216.972 313.232 217.137C313.273 217.137 316.404 218.726 319.23 217.816C320.001 217.536 320.707 217.102 321.304 216.54C321.902 215.979 322.38 215.301 322.707 214.549C322.781 214.38 322.888 214.227 323.022 214.1C323.157 213.973 323.316 213.875 323.49 213.812C323.663 213.749 323.848 213.722 324.033 213.732C324.217 213.743 324.398 213.791 324.563 213.874C324.728 213.957 324.875 214.073 324.994 214.214C325.113 214.356 325.201 214.52 325.255 214.697C325.308 214.874 325.325 215.06 325.304 215.244C325.282 215.427 325.224 215.605 325.132 215.765C324.649 216.845 323.95 217.814 323.077 218.612C322.204 219.41 321.177 220.02 320.058 220.404C319.161 220.683 318.226 220.818 317.287 220.805Z" fill="black"/>
<path id="Vector_44" d="M377.996 249.33L328.84 253.864L330.927 276.488L380.083 271.954L377.996 249.33Z" fill="#C7B8F8"/>
<path id="Vector_45" d="M308.586 153.998C312.906 153.658 317.029 157.21 319.454 160.369C323.529 165.694 325.247 172.187 328.385 178.028C334.614 189.575 349.781 191.021 360.831 186.213L402.467 170.679C401.435 167.358 396.096 148.578 377.003 139.49C368.169 135.358 358.315 133.912 348.667 135.333L313.626 137.167C309.547 137.35 305.579 138.547 302.079 140.651C295.742 144.557 288.814 152.877 291.266 170.448C291.825 166.128 293.855 162.133 297.015 159.134C300.174 156.135 304.27 154.317 308.614 153.984L308.586 153.998Z" fill="black"/>
<path id="Vector_46" d="M294.241 270.469C294.241 270.469 278.484 272.676 268.132 304.307C265.572 312.132 262.855 319.875 259.717 327.509L238.478 375.692L253.944 442.181L288.617 419.631L277.037 389.684C270.53 374.062 268.615 356.457 273.525 340.278L294.241 270.469Z" fill="white"/>
<path id="Vector_47" d="M430.091 398.989L285.778 415.895C279.306 399.845 278.063 398.371 271.596 382.335C266.306 369.229 265.619 354.715 269.647 341.168L289.84 273.484C290.284 271.981 291.189 270.656 292.427 269.695C293.665 268.735 295.175 268.188 296.741 268.132L424.052 263.289C427.156 319.019 427.021 343.26 430.091 398.989Z" fill="#C7B8F8"/>
<path id="Vector_48" d="M274.15 219.725C278.66 222.306 281.303 227.02 283.659 231.462C286.388 236.565 288.778 241.843 290.811 247.26C294.883 258.068 297.498 269.37 298.588 280.868C299.66 292.119 299.12 303.465 296.986 314.563C294.958 324.983 291.5 335.072 286.709 344.544C281.919 354.047 275.753 362.792 268.411 370.497C267.505 371.461 266.564 372.407 265.586 373.336C263.697 375.163 266.577 378.043 268.465 376.215C276.382 368.52 283.107 359.689 288.421 350.011C293.766 340.338 297.735 329.966 300.212 319.196C302.784 307.868 303.719 296.23 302.99 284.637C302.242 272.65 299.873 260.819 295.946 249.468C293.962 243.71 291.6 238.09 288.876 232.644C286.424 227.74 283.802 222.489 279.679 218.761C278.627 217.798 277.472 216.953 276.236 216.241C273.953 214.937 271.902 218.455 274.198 219.759L274.15 219.725Z" fill="white"/>
<path id="Vector_49" d="M376.48 455.717C375.972 440.29 378.966 424.947 385.236 410.842C391.46 396.664 400.756 384.046 412.452 373.899C418.564 368.649 425.574 363.406 433.629 361.809C437.2 361.084 440.904 361.38 444.313 362.665C445.711 363.239 447.047 363.954 448.3 364.798C449.562 365.663 450.734 366.653 451.798 367.753C456.492 372.507 459.636 378.892 461.878 385.14C464.866 393.508 466.836 402.331 468.425 411.059C471.797 429.583 472.654 448.477 470.972 467.23C470.764 469.58 470.515 471.926 470.225 474.267C470.089 475.36 471.258 476.304 472.263 476.304C472.8 476.292 473.311 476.074 473.69 475.694C474.07 475.314 474.289 474.803 474.301 474.267C476.669 454.787 476.34 435.074 473.323 415.685C471.899 406.283 469.809 396.996 467.067 387.891C464.914 380.814 461.939 373.838 457.375 367.97C452.912 362.217 446.725 358.04 439.342 357.401C430.383 356.634 421.92 361.429 415.012 366.625C402.106 376.399 391.591 388.981 384.264 403.418C376.862 417.825 372.795 433.712 372.364 449.903C372.317 451.839 372.364 453.768 372.405 455.704C372.494 458.319 376.569 458.332 376.48 455.704V455.717Z" fill="white"/>
<path id="Vector_50" d="M301.835 421.179C299.94 410.149 299.981 398.873 301.957 387.857C303.757 377.825 306.997 367.868 312.336 359.14C314.734 355.158 317.674 351.528 321.07 348.354C322.714 346.844 324.487 345.48 326.368 344.279C328.124 343.142 329.985 342.176 331.924 341.392C335.773 339.887 339.883 339.162 344.014 339.26C347.927 339.306 351.785 340.179 355.337 341.82C359.025 343.534 362.135 346.283 364.289 349.733C366.809 353.842 367.807 358.875 366.326 363.399C365.673 365.374 364.56 367.167 363.08 368.629C361.64 370.042 359.636 371.346 357.517 371.529C356.633 371.593 355.748 371.448 354.93 371.107C354.113 370.766 353.386 370.238 352.81 369.566C351.45 368.091 350.455 366.319 349.903 364.39C346.86 354.372 351.187 343.423 356.342 334.906C361.394 326.7 367.888 319.475 375.509 313.579C383.462 307.421 392.329 302.544 401.788 299.125C412.249 295.356 423.143 292.921 434.213 291.878C436.93 291.606 439.647 291.402 442.364 291.266C442.9 291.253 443.41 291.034 443.79 290.654C444.169 290.275 444.388 289.765 444.402 289.229C444.402 288.688 444.187 288.17 443.805 287.788C443.423 287.406 442.904 287.191 442.364 287.191C430.472 287.707 418.686 289.656 407.262 292.998C396.563 296.143 386.426 300.956 377.228 307.262C368.596 313.207 361.105 320.657 355.113 329.255C348.898 338.315 343.749 349.59 345.06 360.838C345.644 365.871 347.471 371.142 351.852 374.083C356.539 377.207 362.434 375.047 366.082 371.366C367.905 369.472 369.286 367.198 370.128 364.708C370.97 362.217 371.251 359.572 370.952 356.96C370.309 351.602 367.824 346.634 363.922 342.907C357.361 336.597 347.743 334.356 338.879 335.51C329.031 336.794 320.493 342.228 314.129 349.733C307.337 357.768 302.922 367.596 300.09 377.676C296.831 389.286 295.68 401.386 296.693 413.402C296.945 416.384 297.373 419.366 297.848 422.32C297.992 422.841 298.338 423.283 298.807 423.549C299.277 423.815 299.834 423.884 300.354 423.74C300.87 423.588 301.307 423.242 301.573 422.774C301.839 422.307 301.913 421.755 301.781 421.234L301.835 421.179Z" fill="white"/>
<path id="Vector_51" d="M505.218 392.713H505.293L494.962 368.669L473.227 318.034C470.098 310.753 466.969 303.467 463.841 296.177C459.575 286.254 456.098 275.515 447.105 268.75C435.558 260.077 418.102 258.291 406.203 267.249C396.076 274.87 393.298 288.713 393.481 300.762C393.726 314.421 398.236 327.706 404.172 339.864C410.285 352.389 415.311 365.43 420.928 378.192L430.097 399.017L292.564 415.1C288.001 415.63 283.547 416.86 279.36 418.748C273.587 421.36 267.714 424.168 261.741 427.17C258.241 428.927 254.822 430.697 251.485 432.481L260.118 467.121H456.301C494.874 467.121 520.358 427.564 505.218 392.713Z" fill="white"/>
<path id="Vector_52" d="M345.209 268.628C344.863 268.629 344.529 268.497 344.277 268.26C344.024 268.022 343.872 267.697 343.851 267.351L343.049 253.536C343.029 253.176 343.152 252.822 343.392 252.553C343.632 252.283 343.97 252.12 344.33 252.1C344.69 252.079 345.044 252.202 345.313 252.442C345.583 252.682 345.746 253.02 345.766 253.38L346.568 267.188C346.579 267.367 346.555 267.546 346.496 267.715C346.438 267.884 346.347 268.04 346.228 268.173C346.11 268.307 345.966 268.416 345.805 268.494C345.644 268.572 345.469 268.618 345.291 268.628H345.209Z" fill="black"/>
<path id="Vector_53" d="M358.984 267.623C358.637 267.624 358.304 267.492 358.051 267.254C357.799 267.017 357.646 266.692 357.626 266.346L356.824 252.531C356.814 252.353 356.839 252.174 356.898 252.005C356.956 251.836 357.048 251.681 357.167 251.548C357.286 251.414 357.43 251.305 357.59 251.228C357.751 251.15 357.926 251.105 358.104 251.094C358.283 251.084 358.461 251.109 358.63 251.168C358.799 251.227 358.954 251.318 359.088 251.437C359.221 251.556 359.33 251.7 359.408 251.861C359.485 252.022 359.531 252.196 359.541 252.375L360.342 266.217C360.353 266.396 360.329 266.574 360.271 266.743C360.213 266.913 360.122 267.068 360.003 267.202C359.884 267.336 359.74 267.445 359.58 267.523C359.419 267.601 359.244 267.647 359.065 267.657L358.984 267.623Z" fill="black"/>
<path id="Vector_54" d="M254.976 433.045C254.684 433.038 254.402 432.936 254.172 432.755C253.942 432.574 253.777 432.324 253.7 432.042C253.624 431.759 253.641 431.46 253.748 431.188C253.856 430.916 254.048 430.686 254.297 430.532C258.712 427.815 263.29 425.289 267.881 422.945C273.994 419.855 280.29 417.029 286.661 414.55C286.997 414.42 287.371 414.428 287.701 414.573C288.031 414.718 288.29 414.989 288.421 415.325C288.551 415.661 288.543 416.035 288.398 416.364C288.252 416.694 287.982 416.953 287.646 417.084C281.357 419.529 275.122 422.314 269.111 425.37C264.567 427.679 260.057 430.199 255.689 432.841C255.476 432.976 255.228 433.047 254.976 433.045Z" fill="black"/>
</g>
<g id="vas-flowwer">
<path id="Vector_55" d="M79.6647 393.95L87.5368 364.146H42.8786L49.9696 394.276C41.9158 397.79 35.3246 403.98 31.3131 411.798C27.3015 419.616 26.1164 428.581 27.9584 437.172C29.8005 445.764 34.5564 453.455 41.4203 458.941C48.2842 464.427 56.8339 467.372 65.6204 467.275C74.407 467.179 82.8899 464.047 89.6317 458.412C96.3735 452.776 100.959 444.983 102.612 436.353C104.265 427.723 102.884 418.786 98.7015 411.058C94.5193 403.33 87.7938 397.286 79.6647 393.95Z" fill="white"/>
<path id="Vector_56" d="M65.2044 468.622C56.2444 468.615 47.5539 465.557 40.5629 459.953C33.572 454.349 28.697 446.532 26.7404 437.788C24.7837 429.045 25.8619 419.895 29.7975 411.846C33.7331 403.797 40.2917 397.327 48.3939 393.501L41.1603 362.787H89.296L81.2813 393.162C89.5248 396.848 96.2539 403.251 100.345 411.301C104.436 419.352 105.642 428.562 103.76 437.394C101.878 446.226 97.0235 454.145 90.0063 459.828C82.9892 465.512 74.2345 468.616 65.2044 468.622ZM44.5903 365.504L51.5522 395.07L50.513 395.519C42.7442 398.907 36.3859 404.877 32.5155 412.417C28.6452 419.957 27.501 428.604 29.2768 436.891C31.0526 445.179 35.6392 452.597 42.2593 457.89C48.8794 463.182 57.1257 466.023 65.6008 465.93C74.0758 465.838 82.2582 462.818 88.7612 457.382C95.2642 451.947 99.6879 444.43 101.282 436.106C102.877 427.782 101.544 419.162 97.5105 411.708C93.4766 404.254 86.9895 398.424 79.1486 395.206L78.0483 394.751L85.7709 365.504H44.5903Z" fill="black"/>
<path id="Vector_57" d="M65.1908 367.848C78.5375 367.848 89.3571 365.555 89.3571 362.726C89.3571 359.898 78.5375 357.605 65.1908 357.605C51.8441 357.605 41.0244 359.898 41.0244 362.726C41.0244 365.555 51.8441 367.848 65.1908 367.848Z" fill="black"/>
<path id="Vector_58" d="M58.616 366.849C58.3388 366.848 58.0685 366.763 57.8415 366.604C57.6144 366.444 57.4415 366.22 57.3459 365.96C49.1002 343.478 32.0588 325.207 31.889 325.051C31.7663 324.921 31.6705 324.768 31.6068 324.601C31.5432 324.435 31.513 324.257 31.5181 324.078C31.5231 323.9 31.5633 323.724 31.6362 323.561C31.7092 323.398 31.8135 323.251 31.9433 323.128C32.0731 323.006 32.2258 322.91 32.3926 322.846C32.5594 322.783 32.7372 322.752 32.9157 322.758C33.0942 322.763 33.2699 322.803 33.4329 322.876C33.5958 322.949 33.7429 323.053 33.8655 323.183C34.0421 323.373 51.4571 342.011 59.8929 365.022C60.0097 365.357 59.9913 365.723 59.8416 366.044C59.6919 366.365 59.4227 366.615 59.0914 366.741C58.9404 366.804 58.7795 366.841 58.616 366.849Z" fill="black"/>
<path id="Vector_59" d="M69.4969 367.033C69.1366 367.033 68.7911 366.89 68.5364 366.635C68.2816 366.38 68.1385 366.035 68.1385 365.674V346.222C68.1385 345.861 68.2816 345.516 68.5364 345.261C68.7911 345.006 69.1366 344.863 69.4969 344.863C69.8572 344.863 70.2027 345.006 70.4575 345.261C70.7122 345.516 70.8553 345.861 70.8553 346.222V365.674C70.8553 366.035 70.7122 366.38 70.4575 366.635C70.2027 366.89 69.8572 367.033 69.4969 367.033Z" fill="black"/>
<path id="Vector_60" d="M39.7543 311.453H33.9606C33.8519 311.154 33.7297 310.862 33.6006 310.576L37.8185 306.841C38.2651 306.456 38.6309 305.987 38.8945 305.46C39.1582 304.933 39.3146 304.359 39.3545 303.771C39.3944 303.183 39.3172 302.593 39.1272 302.035C38.9372 301.477 38.6382 300.963 38.2477 300.521C37.8572 300.08 37.3829 299.721 36.8524 299.464C36.3218 299.208 35.7456 299.059 35.1572 299.027C34.5687 298.995 33.9798 299.08 33.4246 299.278C32.8694 299.475 32.359 299.781 31.923 300.178L27.4809 304.11C27.413 304.171 27.3587 304.246 27.2907 304.314C27.0123 304.185 26.727 304.07 26.4349 303.961V298.575C26.39 297.424 25.9012 296.335 25.0712 295.537C24.2412 294.739 23.1343 294.293 21.9827 294.293C20.8311 294.293 19.7242 294.739 18.8942 295.537C18.0642 296.335 17.5754 297.424 17.5305 298.575V303.961C17.1188 304.112 16.7153 304.284 16.3215 304.477C16.1964 304.323 16.0602 304.177 15.9139 304.042L11.4379 300.178C10.5371 299.46 9.39313 299.119 8.24617 299.226C7.09921 299.333 6.03837 299.881 5.28623 300.753C4.53408 301.626 4.1491 302.755 4.21205 303.906C4.275 305.056 4.781 306.137 5.62388 306.922L10.1203 310.801C10.1558 310.832 10.1945 310.859 10.2357 310.882C10.1542 311.072 10.0863 311.269 10.0116 311.466H4.42846C3.25444 311.472 2.13014 311.941 1.3006 312.772C0.471074 313.602 0.00357255 314.727 0 315.902C-1.37164e-06 317.082 0.468497 318.214 1.30262 319.05C2.13675 319.885 3.26831 320.355 4.44884 320.357H9.97762L10.1135 320.724H10.0727L5.62388 324.657C4.78356 325.451 4.28498 326.541 4.23349 327.696C4.18201 328.851 4.58165 329.981 5.34797 330.847C6.11429 331.713 7.18726 332.247 8.34015 332.337C9.49304 332.426 10.6355 332.064 11.5262 331.326L15.9683 327.394L16.0634 327.292C16.5491 327.554 17.053 327.781 17.5712 327.971V333.31C17.6162 334.46 18.1049 335.549 18.9349 336.347C19.765 337.146 20.8719 337.591 22.0234 337.591C23.175 337.591 24.2819 337.146 25.1119 336.347C25.942 335.549 26.4307 334.46 26.4757 333.31V328.025C26.7813 327.91 27.087 327.788 27.3858 327.645L31.7464 331.401C32.6444 332.169 33.8108 332.55 34.989 332.458C36.1672 332.366 37.2608 331.81 38.0291 330.912C38.7974 330.014 39.1775 328.848 39.0858 327.669C38.994 326.491 38.438 325.398 37.54 324.629L33.6685 321.288C33.8044 320.982 33.9266 320.67 34.0421 320.357H39.7543C40.936 320.357 42.0693 319.888 42.9049 319.052C43.7405 318.217 44.2099 317.083 44.2099 315.902C44.2081 314.721 43.7379 313.589 42.9025 312.755C42.0671 311.921 40.9348 311.453 39.7543 311.453Z" fill="#C7B8F8"/>
<path id="Vector_61" d="M39.7543 311.453H33.9606C33.8519 311.154 33.7297 310.862 33.6006 310.576L37.8185 306.841C38.2651 306.456 38.6309 305.987 38.8945 305.46C39.1582 304.933 39.3146 304.359 39.3545 303.771C39.3944 303.183 39.3172 302.593 39.1272 302.035C38.9372 301.477 38.6382 300.963 38.2477 300.521C37.8572 300.08 37.3829 299.721 36.8524 299.464C36.3218 299.208 35.7456 299.059 35.1572 299.027C34.5687 298.995 33.9798 299.08 33.4246 299.278C32.8694 299.475 32.359 299.781 31.923 300.178L27.4809 304.11C27.413 304.171 27.3587 304.246 27.2907 304.314C27.0123 304.185 26.727 304.07 26.4349 303.961V298.575C26.39 297.424 25.9012 296.335 25.0712 295.537C24.2412 294.739 23.1343 294.293 21.9827 294.293C20.8311 294.293 19.7242 294.739 18.8942 295.537C18.0642 296.335 17.5754 297.424 17.5305 298.575V303.961C17.1188 304.112 16.7153 304.284 16.3215 304.477C16.1964 304.323 16.0602 304.177 15.9139 304.042L11.4379 300.178C10.5371 299.46 9.39313 299.119 8.24617 299.226C7.09921 299.333 6.03837 299.881 5.28623 300.753C4.53408 301.626 4.1491 302.755 4.21205 303.906C4.275 305.056 4.781 306.137 5.62388 306.922L10.1203 310.801C10.1558 310.832 10.1945 310.859 10.2357 310.882C10.1542 311.072 10.0863 311.269 10.0116 311.466H4.42846C3.25444 311.472 2.13014 311.941 1.3006 312.772C0.471074 313.602 0.00357255 314.727 0 315.902C-1.37164e-06 317.082 0.468497 318.214 1.30262 319.05C2.13675 319.885 3.26831 320.355 4.44884 320.357H9.97762L10.1135 320.724H10.0727L5.62388 324.657C4.78356 325.451 4.28498 326.541 4.23349 327.696C4.18201 328.851 4.58165 329.981 5.34797 330.847C6.11429 331.713 7.18726 332.247 8.34015 332.337C9.49304 332.426 10.6355 332.064 11.5262 331.326L15.9683 327.394L16.0634 327.292C16.5491 327.554 17.053 327.781 17.5712 327.971V333.31C17.6162 334.46 18.1049 335.549 18.9349 336.347C19.765 337.146 20.8719 337.591 22.0234 337.591C23.175 337.591 24.2819 337.146 25.1119 336.347C25.942 335.549 26.4307 334.46 26.4757 333.31V328.025C26.7813 327.91 27.087 327.788 27.3858 327.645L31.7464 331.401C32.6444 332.169 33.8108 332.55 34.989 332.458C36.1672 332.366 37.2608 331.81 38.0291 330.912C38.7974 330.014 39.1775 328.848 39.0858 327.669C38.994 326.491 38.438 325.398 37.54 324.629L33.6685 321.288C33.8044 320.982 33.9266 320.67 34.0421 320.357H39.7543C40.936 320.357 42.0693 319.888 42.9049 319.052C43.7405 318.217 44.2099 317.083 44.2099 315.902C44.2081 314.721 43.7379 313.589 42.9025 312.755C42.0671 311.921 40.9348 311.453 39.7543 311.453Z" fill="#C7B8F8"/>
<path id="Vector_62" d="M39.7543 311.453H33.9606C33.8519 311.154 33.7297 310.862 33.6006 310.576L37.8185 306.841C38.2651 306.456 38.6309 305.987 38.8945 305.46C39.1582 304.933 39.3146 304.359 39.3545 303.771C39.3944 303.183 39.3172 302.593 39.1272 302.035C38.9372 301.477 38.6382 300.963 38.2477 300.521C37.8572 300.08 37.3829 299.721 36.8524 299.464C36.3218 299.208 35.7456 299.059 35.1572 299.027C34.5687 298.995 33.9798 299.08 33.4246 299.278C32.8694 299.475 32.359 299.781 31.923 300.178L27.4809 304.11C27.413 304.171 27.3587 304.246 27.2907 304.314C27.0123 304.185 26.727 304.07 26.4349 303.961V298.575C26.39 297.424 25.9012 296.335 25.0712 295.537C24.2412 294.739 23.1343 294.293 21.9827 294.293C20.8311 294.293 19.7242 294.739 18.8942 295.537C18.0642 296.335 17.5754 297.424 17.5305 298.575V303.961C17.1188 304.112 16.7153 304.284 16.3215 304.477C16.1964 304.323 16.0602 304.177 15.9139 304.042L11.4379 300.178C10.5371 299.46 9.39313 299.119 8.24617 299.226C7.09921 299.333 6.03837 299.881 5.28623 300.753C4.53408 301.626 4.1491 302.755 4.21205 303.906C4.275 305.056 4.781 306.137 5.62388 306.922L10.1203 310.801C10.1558 310.832 10.1945 310.859 10.2357 310.882C10.1542 311.072 10.0863 311.269 10.0116 311.466H4.42846C3.25444 311.472 2.13014 311.941 1.3006 312.772C0.471074 313.602 0.00357255 314.727 0 315.902C-1.37164e-06 317.082 0.468497 318.214 1.30262 319.05C2.13675 319.885 3.26831 320.355 4.44884 320.357H9.97762L10.1135 320.724H10.0727L5.62388 324.657C4.78356 325.451 4.28498 326.541 4.23349 327.696C4.18201 328.851 4.58165 329.981 5.34797 330.847C6.11429 331.713 7.18726 332.247 8.34015 332.337C9.49304 332.426 10.6355 332.064 11.5262 331.326L15.9683 327.394L16.0634 327.292C16.5491 327.554 17.053 327.781 17.5712 327.971V333.31C17.6162 334.46 18.1049 335.549 18.9349 336.347C19.765 337.146 20.8719 337.591 22.0234 337.591C23.175 337.591 24.2819 337.146 25.1119 336.347C25.942 335.549 26.4307 334.46 26.4757 333.31V328.025C26.7813 327.91 27.087 327.788 27.3858 327.645L31.7464 331.401C32.6444 332.169 33.8108 332.55 34.989 332.458C36.1672 332.366 37.2608 331.81 38.0291 330.912C38.7974 330.014 39.1775 328.848 39.0858 327.669C38.994 326.491 38.438 325.398 37.54 324.629L33.6685 321.288C33.8044 320.982 33.9266 320.67 34.0421 320.357H39.7543C40.936 320.357 42.0693 319.888 42.9049 319.052C43.7405 318.217 44.2099 317.083 44.2099 315.902C44.2081 314.721 43.7379 313.589 42.9025 312.755C42.0671 311.921 40.9348 311.453 39.7543 311.453Z" fill="#C7B8F8"/>
<path id="Vector_63" d="M39.7543 311.453H33.9606C33.8519 311.154 33.7297 310.862 33.6006 310.576L37.8185 306.841C38.2651 306.456 38.6309 305.987 38.8945 305.46C39.1582 304.933 39.3146 304.359 39.3545 303.771C39.3944 303.183 39.3172 302.593 39.1272 302.035C38.9372 301.477 38.6382 300.963 38.2477 300.521C37.8572 300.08 37.3829 299.721 36.8524 299.464C36.3218 299.208 35.7456 299.059 35.1572 299.027C34.5687 298.995 33.9798 299.08 33.4246 299.278C32.8694 299.475 32.359 299.781 31.923 300.178L27.4809 304.11C27.413 304.171 27.3587 304.246 27.2907 304.314C27.0123 304.185 26.727 304.07 26.4349 303.961V298.575C26.39 297.424 25.9012 296.335 25.0712 295.537C24.2412 294.739 23.1343 294.293 21.9827 294.293C20.8311 294.293 19.7242 294.739 18.8942 295.537C18.0642 296.335 17.5754 297.424 17.5305 298.575V303.961C17.1188 304.112 16.7153 304.284 16.3215 304.477C16.1964 304.323 16.0602 304.177 15.9139 304.042L11.4379 300.178C10.5371 299.46 9.39313 299.119 8.24617 299.226C7.09921 299.333 6.03837 299.881 5.28623 300.753C4.53408 301.626 4.1491 302.755 4.21205 303.906C4.275 305.056 4.781 306.137 5.62388 306.922L10.1203 310.801C10.1558 310.832 10.1945 310.859 10.2357 310.882C10.1542 311.072 10.0863 311.269 10.0116 311.466H4.42846C3.25444 311.472 2.13014 311.941 1.3006 312.772C0.471074 313.602 0.00357255 314.727 0 315.902C-1.37164e-06 317.082 0.468497 318.214 1.30262 319.05C2.13675 319.885 3.26831 320.355 4.44884 320.357H9.97762L10.1135 320.724H10.0727L5.62388 324.657C4.78356 325.451 4.28498 326.541 4.23349 327.696C4.18201 328.851 4.58165 329.981 5.34797 330.847C6.11429 331.713 7.18726 332.247 8.34015 332.337C9.49304 332.426 10.6355 332.064 11.5262 331.326L15.9683 327.394L16.0634 327.292C16.5491 327.554 17.053 327.781 17.5712 327.971V333.31C17.6162 334.46 18.1049 335.549 18.9349 336.347C19.765 337.146 20.8719 337.591 22.0234 337.591C23.175 337.591 24.2819 337.146 25.1119 336.347C25.942 335.549 26.4307 334.46 26.4757 333.31V328.025C26.7813 327.91 27.087 327.788 27.3858 327.645L31.7464 331.401C32.6444 332.169 33.8108 332.55 34.989 332.458C36.1672 332.366 37.2608 331.81 38.0291 330.912C38.7974 330.014 39.1775 328.848 39.0858 327.669C38.994 326.491 38.438 325.398 37.54 324.629L33.6685 321.288C33.8044 320.982 33.9266 320.67 34.0421 320.357H39.7543C40.936 320.357 42.0693 319.888 42.9049 319.052C43.7405 318.217 44.2099 317.083 44.2099 315.902C44.2081 314.721 43.7379 313.589 42.9025 312.755C42.0671 311.921 40.9348 311.453 39.7543 311.453Z" fill="#C7B8F8"/>
<path id="Vector_64" d="M39.7543 311.453H33.9606C33.8519 311.154 33.7297 310.862 33.6006 310.576L37.8185 306.841C38.2651 306.456 38.6309 305.987 38.8945 305.46C39.1582 304.933 39.3146 304.359 39.3545 303.771C39.3944 303.183 39.3172 302.593 39.1272 302.035C38.9372 301.477 38.6382 300.963 38.2477 300.521C37.8572 300.08 37.3829 299.721 36.8524 299.464C36.3218 299.208 35.7456 299.059 35.1572 299.027C34.5687 298.995 33.9798 299.08 33.4246 299.278C32.8694 299.475 32.359 299.781 31.923 300.178L27.4809 304.11C27.413 304.171 27.3587 304.246 27.2907 304.314C27.0123 304.185 26.727 304.07 26.4349 303.961V298.575C26.39 297.424 25.9012 296.335 25.0712 295.537C24.2412 294.739 23.1343 294.293 21.9827 294.293C20.8311 294.293 19.7242 294.739 18.8942 295.537C18.0642 296.335 17.5754 297.424 17.5305 298.575V303.961C17.1188 304.112 16.7153 304.284 16.3215 304.477C16.1964 304.323 16.0602 304.177 15.9139 304.042L11.4379 300.178C10.5371 299.46 9.39313 299.119 8.24617 299.226C7.09921 299.333 6.03837 299.881 5.28623 300.753C4.53408 301.626 4.1491 302.755 4.21205 303.906C4.275 305.056 4.781 306.137 5.62388 306.922L10.1203 310.801C10.1558 310.832 10.1945 310.859 10.2357 310.882C10.1542 311.072 10.0863 311.269 10.0116 311.466H4.42846C3.25444 311.472 2.13014 311.941 1.3006 312.772C0.471074 313.602 0.00357255 314.727 0 315.902C-1.37164e-06 317.082 0.468497 318.214 1.30262 319.05C2.13675 319.885 3.26831 320.355 4.44884 320.357H9.97762L10.1135 320.724H10.0727L5.62388 324.657C4.78356 325.451 4.28498 326.541 4.23349 327.696C4.18201 328.851 4.58165 329.981 5.34797 330.847C6.11429 331.713 7.18726 332.247 8.34015 332.337C9.49304 332.426 10.6355 332.064 11.5262 331.326L15.9683 327.394L16.0634 327.292C16.5491 327.554 17.053 327.781 17.5712 327.971V333.31C17.6162 334.46 18.1049 335.549 18.9349 336.347C19.765 337.146 20.8719 337.591 22.0234 337.591C23.175 337.591 24.2819 337.146 25.1119 336.347C25.942 335.549 26.4307 334.46 26.4757 333.31V328.025C26.7813 327.91 27.087 327.788 27.3858 327.645L31.7464 331.401C32.6444 332.169 33.8108 332.55 34.989 332.458C36.1672 332.366 37.2608 331.81 38.0291 330.912C38.7974 330.014 39.1775 328.848 39.0858 327.669C38.994 326.491 38.438 325.398 37.54 324.629L33.6685 321.288C33.8044 320.982 33.9266 320.67 34.0421 320.357H39.7543C40.936 320.357 42.0693 319.888 42.9049 319.052C43.7405 318.217 44.2099 317.083 44.2099 315.902C44.2081 314.721 43.7379 313.589 42.9025 312.755C42.0671 311.921 40.9348 311.453 39.7543 311.453Z" fill="#C7B8F8"/>
<path id="Vector_65" d="M39.7543 311.453H33.9606C33.8519 311.154 33.7297 310.862 33.6006 310.576L37.8185 306.841C38.2651 306.456 38.6309 305.987 38.8945 305.46C39.1582 304.933 39.3146 304.359 39.3545 303.771C39.3944 303.183 39.3172 302.593 39.1272 302.035C38.9372 301.477 38.6382 300.963 38.2477 300.521C37.8572 300.08 37.3829 299.721 36.8524 299.464C36.3218 299.208 35.7456 299.059 35.1572 299.027C34.5687 298.995 33.9798 299.08 33.4246 299.278C32.8694 299.475 32.359 299.781 31.923 300.178L27.4809 304.11C27.413 304.171 27.3587 304.246 27.2907 304.314C27.0123 304.185 26.727 304.07 26.4349 303.961V298.575C26.39 297.424 25.9012 296.335 25.0712 295.537C24.2412 294.739 23.1343 294.293 21.9827 294.293C20.8311 294.293 19.7242 294.739 18.8942 295.537C18.0642 296.335 17.5754 297.424 17.5305 298.575V303.961C17.1188 304.112 16.7153 304.284 16.3215 304.477C16.1964 304.323 16.0602 304.177 15.9139 304.042L11.4379 300.178C10.5371 299.46 9.39313 299.119 8.24617 299.226C7.09921 299.333 6.03837 299.881 5.28623 300.753C4.53408 301.626 4.1491 302.755 4.21205 303.906C4.275 305.056 4.781 306.137 5.62388 306.922L10.1203 310.801C10.1558 310.832 10.1945 310.859 10.2357 310.882C10.1542 311.072 10.0863 311.269 10.0116 311.466H4.42846C3.25444 311.472 2.13014 311.941 1.3006 312.772C0.471074 313.602 0.00357255 314.727 0 315.902C-1.37164e-06 317.082 0.468497 318.214 1.30262 319.05C2.13675 319.885 3.26831 320.355 4.44884 320.357H9.97762L10.1135 320.724H10.0727L5.62388 324.657C4.78356 325.451 4.28498 326.541 4.23349 327.696C4.18201 328.851 4.58165 329.981 5.34797 330.847C6.11429 331.713 7.18726 332.247 8.34015 332.337C9.49304 332.426 10.6355 332.064 11.5262 331.326L15.9683 327.394L16.0634 327.292C16.5491 327.554 17.053 327.781 17.5712 327.971V333.31C17.6162 334.46 18.1049 335.549 18.9349 336.347C19.765 337.146 20.8719 337.591 22.0234 337.591C23.175 337.591 24.2819 337.146 25.1119 336.347C25.942 335.549 26.4307 334.46 26.4757 333.31V328.025C26.7813 327.91 27.087 327.788 27.3858 327.645L31.7464 331.401C32.6444 332.169 33.8108 332.55 34.989 332.458C36.1672 332.366 37.2608 331.81 38.0291 330.912C38.7974 330.014 39.1775 328.848 39.0858 327.669C38.994 326.491 38.438 325.398 37.54 324.629L33.6685 321.288C33.8044 320.982 33.9266 320.67 34.0421 320.357H39.7543C40.936 320.357 42.0693 319.888 42.9049 319.052C43.7405 318.217 44.2099 317.083 44.2099 315.902C44.2081 314.721 43.7379 313.589 42.9025 312.755C42.0671 311.921 40.9348 311.453 39.7543 311.453Z" fill="#C7B8F8"/>
<path id="Vector_66" d="M39.7543 311.453H33.9606C33.8519 311.154 33.7297 310.862 33.6006 310.576L37.8185 306.841C38.2651 306.456 38.6309 305.987 38.8945 305.46C39.1582 304.933 39.3146 304.359 39.3545 303.771C39.3944 303.183 39.3172 302.593 39.1272 302.035C38.9372 301.477 38.6382 300.963 38.2477 300.521C37.8572 300.08 37.3829 299.721 36.8524 299.464C36.3218 299.208 35.7456 299.059 35.1572 299.027C34.5687 298.995 33.9798 299.08 33.4246 299.278C32.8694 299.475 32.359 299.781 31.923 300.178L27.4809 304.11C27.413 304.171 27.3587 304.246 27.2907 304.314C27.0123 304.185 26.727 304.07 26.4349 303.961V298.575C26.39 297.424 25.9012 296.335 25.0712 295.537C24.2412 294.739 23.1343 294.293 21.9827 294.293C20.8311 294.293 19.7242 294.739 18.8942 295.537C18.0642 296.335 17.5754 297.424 17.5305 298.575V303.961C17.1188 304.112 16.7153 304.284 16.3215 304.477C16.1964 304.323 16.0602 304.177 15.9139 304.042L11.4379 300.178C10.5371 299.46 9.39313 299.119 8.24617 299.226C7.09921 299.333 6.03837 299.881 5.28623 300.753C4.53408 301.626 4.1491 302.755 4.21205 303.906C4.275 305.056 4.781 306.137 5.62388 306.922L10.1203 310.801C10.1558 310.832 10.1945 310.859 10.2357 310.882C10.1542 311.072 10.0863 311.269 10.0116 311.466H4.42846C3.25444 311.472 2.13014 311.941 1.3006 312.772C0.471074 313.602 0.00357255 314.727 0 315.902C-1.37164e-06 317.082 0.468497 318.214 1.30262 319.05C2.13675 319.885 3.26831 320.355 4.44884 320.357H9.97762L10.1135 320.724H10.0727L5.62388 324.657C4.78356 325.451 4.28498 326.541 4.23349 327.696C4.18201 328.851 4.58165 329.981 5.34797 330.847C6.11429 331.713 7.18726 332.247 8.34015 332.337C9.49304 332.426 10.6355 332.064 11.5262 331.326L15.9683 327.394L16.0634 327.292C16.5491 327.554 17.053 327.781 17.5712 327.971V333.31C17.6162 334.46 18.1049 335.549 18.9349 336.347C19.765 337.146 20.8719 337.591 22.0234 337.591C23.175 337.591 24.2819 337.146 25.1119 336.347C25.942 335.549 26.4307 334.46 26.4757 333.31V328.025C26.7813 327.91 27.087 327.788 27.3858 327.645L31.7464 331.401C32.6444 332.169 33.8108 332.55 34.989 332.458C36.1672 332.366 37.2608 331.81 38.0291 330.912C38.7974 330.014 39.1775 328.848 39.0858 327.669C38.994 326.491 38.438 325.398 37.54 324.629L33.6685 321.288C33.8044 320.982 33.9266 320.67 34.0421 320.357H39.7543C40.936 320.357 42.0693 319.888 42.9049 319.052C43.7405 318.217 44.2099 317.083 44.2099 315.902C44.2081 314.721 43.7379 313.589 42.9025 312.755C42.0671 311.921 40.9348 311.453 39.7543 311.453Z" fill="#C7B8F8"/>
<path id="Vector_67" d="M87.1633 327.856H81.3968C81.2881 327.557 81.1658 327.271 81.03 326.986L85.2547 323.25C86.095 322.456 86.5936 321.366 86.6451 320.211C86.6965 319.056 86.2969 317.926 85.5306 317.06C84.7643 316.194 83.6913 315.66 82.5384 315.57C81.3855 315.481 80.243 315.843 79.3523 316.581L74.9103 320.513C74.8434 320.578 74.78 320.646 74.7201 320.717C74.4416 320.588 74.1496 320.473 73.8575 320.364V314.978C73.8126 313.827 73.3238 312.738 72.4938 311.94C71.6637 311.142 70.5569 310.696 69.4053 310.696C68.2537 310.696 67.1468 311.142 66.3168 311.94C65.4867 312.738 64.998 313.827 64.953 314.978V320.364C64.5455 320.513 64.1448 320.69 63.7508 320.88C63.6239 320.727 63.4878 320.582 63.3433 320.445L58.8469 316.567C58.4082 316.158 57.8915 315.842 57.3278 315.638C56.7641 315.434 56.165 315.345 55.5663 315.378C54.9676 315.411 54.3817 315.564 53.8436 315.829C53.3056 316.093 52.8265 316.464 52.435 316.918C52.0435 317.372 51.7477 317.901 51.5653 318.472C51.3829 319.043 51.3177 319.645 51.3735 320.242C51.4293 320.839 51.6051 321.419 51.8902 321.946C52.1753 322.473 52.564 322.938 53.0329 323.312L57.5225 327.19C57.5616 327.219 57.6024 327.247 57.6447 327.271C57.5632 327.462 57.4885 327.659 57.4206 327.856H51.8375C50.6575 327.856 49.526 328.324 48.6916 329.159C47.8573 329.993 47.3886 331.124 47.3886 332.304C47.3886 333.485 47.8571 334.617 48.6912 335.453C49.5254 336.288 50.6569 336.758 51.8375 336.76H57.3662C57.407 336.882 57.4545 337.011 57.5021 337.134C57.5021 337.134 57.5021 337.134 57.4613 337.134L53.0125 341.066C52.5523 341.447 52.1734 341.917 51.8984 342.447C51.6234 342.978 51.4579 343.558 51.4117 344.154C51.3655 344.749 51.4396 345.348 51.6295 345.915C51.8194 346.481 52.1213 347.004 52.5173 347.451C52.9132 347.898 53.3951 348.262 53.9342 348.519C54.4734 348.776 55.0588 348.923 55.6556 348.949C56.2525 348.976 56.8486 348.882 57.4085 348.674C57.9684 348.465 58.4807 348.147 58.9148 347.736L63.3569 343.803L63.452 343.708C63.9373 343.967 64.4387 344.193 64.953 344.388V349.76C64.998 350.911 65.4867 351.999 66.3168 352.798C67.1468 353.596 68.2537 354.042 69.4053 354.042C70.5569 354.042 71.6637 353.596 72.4938 352.798C73.3238 351.999 73.8126 350.911 73.8575 349.76V344.394C74.1699 344.279 74.4756 344.157 74.7744 344.014L79.1282 347.77C79.5706 348.152 80.084 348.444 80.639 348.627C81.1939 348.811 81.7797 348.884 82.3628 348.841C82.9459 348.799 83.5149 348.642 84.0373 348.379C84.5597 348.117 85.0253 347.754 85.4075 347.312C85.7897 346.869 86.081 346.356 86.2648 345.801C86.4486 345.246 86.5213 344.66 86.4788 344.077C86.4362 343.494 86.2792 342.925 86.0167 342.402C85.7542 341.88 85.3914 341.414 84.949 341.032L81.0707 337.691C81.2134 337.385 81.3356 337.072 81.4511 336.76H87.1633C88.3438 336.758 89.4754 336.288 90.3095 335.453C91.1436 334.617 91.6121 333.485 91.6121 332.304C91.6121 331.72 91.497 331.142 91.2735 330.602C91.0499 330.062 90.7222 329.572 90.3091 329.159C89.896 328.745 89.4055 328.418 88.8658 328.194C88.326 327.971 87.7475 327.856 87.1633 327.856Z" fill="#C7B8F8"/>
<path id="Vector_68" d="M87.1633 327.856H81.3968C81.2881 327.557 81.1658 327.271 81.03 326.986L85.2547 323.25C86.095 322.456 86.5936 321.366 86.6451 320.211C86.6965 319.056 86.2969 317.926 85.5306 317.06C84.7643 316.194 83.6913 315.66 82.5384 315.57C81.3855 315.481 80.243 315.843 79.3523 316.581L74.9103 320.513C74.8434 320.578 74.78 320.646 74.7201 320.717C74.4416 320.588 74.1496 320.473 73.8575 320.364V314.978C73.8126 313.827 73.3238 312.738 72.4938 311.94C71.6637 311.142 70.5569 310.696 69.4053 310.696C68.2537 310.696 67.1468 311.142 66.3168 311.94C65.4867 312.738 64.998 313.827 64.953 314.978V320.364C64.5455 320.513 64.1448 320.69 63.7508 320.88C63.6239 320.727 63.4878 320.582 63.3433 320.445L58.8469 316.567C58.4082 316.158 57.8915 315.842 57.3278 315.638C56.7641 315.434 56.165 315.345 55.5663 315.378C54.9676 315.411 54.3817 315.564 53.8436 315.829C53.3056 316.093 52.8265 316.464 52.435 316.918C52.0435 317.372 51.7477 317.901 51.5653 318.472C51.3829 319.043 51.3177 319.645 51.3735 320.242C51.4293 320.839 51.6051 321.419 51.8902 321.946C52.1753 322.473 52.564 322.938 53.0329 323.312L57.5225 327.19C57.5616 327.219 57.6024 327.247 57.6447 327.271C57.5632 327.462 57.4885 327.659 57.4206 327.856H51.8375C50.6575 327.856 49.526 328.324 48.6916 329.159C47.8573 329.993 47.3886 331.124 47.3886 332.304C47.3886 333.485 47.8571 334.617 48.6912 335.453C49.5254 336.288 50.6569 336.758 51.8375 336.76H57.3662C57.407 336.882 57.4545 337.011 57.5021 337.134C57.5021 337.134 57.5021 337.134 57.4613 337.134L53.0125 341.066C52.5523 341.447 52.1734 341.917 51.8984 342.447C51.6234 342.978 51.4579 343.558 51.4117 344.154C51.3655 344.749 51.4396 345.348 51.6295 345.915C51.8194 346.481 52.1213 347.004 52.5173 347.451C52.9132 347.898 53.3951 348.262 53.9342 348.519C54.4734 348.776 55.0588 348.923 55.6556 348.949C56.2525 348.976 56.8486 348.882 57.4085 348.674C57.9684 348.465 58.4807 348.147 58.9148 347.736L63.3569 343.803L63.452 343.708C63.9373 343.967 64.4387 344.193 64.953 344.388V349.76C64.998 350.911 65.4867 351.999 66.3168 352.798C67.1468 353.596 68.2537 354.042 69.4053 354.042C70.5569 354.042 71.6637 353.596 72.4938 352.798C73.3238 351.999 73.8126 350.911 73.8575 349.76V344.394C74.1699 344.279 74.4756 344.157 74.7744 344.014L79.1282 347.77C79.5706 348.152 80.084 348.444 80.639 348.627C81.1939 348.811 81.7797 348.884 82.3628 348.841C82.9459 348.799 83.5149 348.642 84.0373 348.379C84.5597 348.117 85.0253 347.754 85.4075 347.312C85.7897 346.869 86.081 346.356 86.2648 345.801C86.4486 345.246 86.5213 344.66 86.4788 344.077C86.4362 343.494 86.2792 342.925 86.0167 342.402C85.7542 341.88 85.3914 341.414 84.949 341.032L81.0707 337.691C81.2134 337.385 81.3356 337.072 81.4511 336.76H87.1633C88.3438 336.758 89.4754 336.288 90.3095 335.453C91.1436 334.617 91.6121 333.485 91.6121 332.304C91.6121 331.72 91.497 331.142 91.2735 330.602C91.0499 330.062 90.7222 329.572 90.3091 329.159C89.896 328.745 89.4055 328.418 88.8658 328.194C88.326 327.971 87.7475 327.856 87.1633 327.856Z" fill="#C7B8F8"/>
<path id="Vector_69" d="M87.1633 327.856H81.3968C81.2881 327.557 81.1658 327.271 81.03 326.986L85.2547 323.25C86.095 322.456 86.5936 321.366 86.6451 320.211C86.6965 319.056 86.2969 317.926 85.5306 317.06C84.7643 316.194 83.6913 315.66 82.5384 315.57C81.3855 315.481 80.243 315.843 79.3523 316.581L74.9103 320.513C74.8434 320.578 74.78 320.646 74.7201 320.717C74.4416 320.588 74.1496 320.473 73.8575 320.364V314.978C73.8126 313.827 73.3238 312.738 72.4938 311.94C71.6637 311.142 70.5569 310.696 69.4053 310.696C68.2537 310.696 67.1468 311.142 66.3168 311.94C65.4867 312.738 64.998 313.827 64.953 314.978V320.364C64.5455 320.513 64.1448 320.69 63.7508 320.88C63.6239 320.727 63.4878 320.582 63.3433 320.445L58.8469 316.567C58.4082 316.158 57.8915 315.842 57.3278 315.638C56.7641 315.434 56.165 315.345 55.5663 315.378C54.9676 315.411 54.3817 315.564 53.8436 315.829C53.3056 316.093 52.8265 316.464 52.435 316.918C52.0435 317.372 51.7477 317.901 51.5653 318.472C51.3829 319.043 51.3177 319.645 51.3735 320.242C51.4293 320.839 51.6051 321.419 51.8902 321.946C52.1753 322.473 52.564 322.938 53.0329 323.312L57.5225 327.19C57.5616 327.219 57.6024 327.247 57.6447 327.271C57.5632 327.462 57.4885 327.659 57.4206 327.856H51.8375C50.6575 327.856 49.526 328.324 48.6916 329.159C47.8573 329.993 47.3886 331.124 47.3886 332.304C47.3886 333.485 47.8571 334.617 48.6912 335.453C49.5254 336.288 50.6569 336.758 51.8375 336.76H57.3662C57.407 336.882 57.4545 337.011 57.5021 337.134C57.5021 337.134 57.5021 337.134 57.4613 337.134L53.0125 341.066C52.5523 341.447 52.1734 341.917 51.8984 342.447C51.6234 342.978 51.4579 343.558 51.4117 344.154C51.3655 344.749 51.4396 345.348 51.6295 345.915C51.8194 346.481 52.1213 347.004 52.5173 347.451C52.9132 347.898 53.3951 348.262 53.9342 348.519C54.4734 348.776 55.0588 348.923 55.6556 348.949C56.2525 348.976 56.8486 348.882 57.4085 348.674C57.9684 348.465 58.4807 348.147 58.9148 347.736L63.3569 343.803L63.452 343.708C63.9373 343.967 64.4387 344.193 64.953 344.388V349.76C64.998 350.911 65.4867 351.999 66.3168 352.798C67.1468 353.596 68.2537 354.042 69.4053 354.042C70.5569 354.042 71.6637 353.596 72.4938 352.798C73.3238 351.999 73.8126 350.911 73.8575 349.76V344.394C74.1699 344.279 74.4756 344.157 74.7744 344.014L79.1282 347.77C79.5706 348.152 80.084 348.444 80.639 348.627C81.1939 348.811 81.7797 348.884 82.3628 348.841C82.9459 348.799 83.5149 348.642 84.0373 348.379C84.5597 348.117 85.0253 347.754 85.4075 347.312C85.7897 346.869 86.081 346.356 86.2648 345.801C86.4486 345.246 86.5213 344.66 86.4788 344.077C86.4362 343.494 86.2792 342.925 86.0167 342.402C85.7542 341.88 85.3914 341.414 84.949 341.032L81.0707 337.691C81.2134 337.385 81.3356 337.072 81.4511 336.76H87.1633C88.3438 336.758 89.4754 336.288 90.3095 335.453C91.1436 334.617 91.6121 333.485 91.6121 332.304C91.6121 331.72 91.497 331.142 91.2735 330.602C91.0499 330.062 90.7222 329.572 90.3091 329.159C89.896 328.745 89.4055 328.418 88.8658 328.194C88.326 327.971 87.7475 327.856 87.1633 327.856Z" fill="#C7B8F8"/>
<path id="Vector_70" d="M87.1633 327.856H81.3968C81.2881 327.557 81.1658 327.271 81.03 326.986L85.2547 323.25C86.095 322.456 86.5936 321.366 86.6451 320.211C86.6965 319.056 86.2969 317.926 85.5306 317.06C84.7643 316.194 83.6913 315.66 82.5384 315.57C81.3855 315.481 80.243 315.843 79.3523 316.581L74.9103 320.513C74.8434 320.578 74.78 320.646 74.7201 320.717C74.4416 320.588 74.1496 320.473 73.8575 320.364V314.978C73.8126 313.827 73.3238 312.738 72.4938 311.94C71.6637 311.142 70.5569 310.696 69.4053 310.696C68.2537 310.696 67.1468 311.142 66.3168 311.94C65.4867 312.738 64.998 313.827 64.953 314.978V320.364C64.5455 320.513 64.1448 320.69 63.7508 320.88C63.6239 320.727 63.4878 320.582 63.3433 320.445L58.8469 316.567C58.4082 316.158 57.8915 315.842 57.3278 315.638C56.7641 315.434 56.165 315.345 55.5663 315.378C54.9676 315.411 54.3817 315.564 53.8436 315.829C53.3056 316.093 52.8265 316.464 52.435 316.918C52.0435 317.372 51.7477 317.901 51.5653 318.472C51.3829 319.043 51.3177 319.645 51.3735 320.242C51.4293 320.839 51.6051 321.419 51.8902 321.946C52.1753 322.473 52.564 322.938 53.0329 323.312L57.5225 327.19C57.5616 327.219 57.6024 327.247 57.6447 327.271C57.5632 327.462 57.4885 327.659 57.4206 327.856H51.8375C50.6575 327.856 49.526 328.324 48.6916 329.159C47.8573 329.993 47.3886 331.124 47.3886 332.304C47.3886 333.485 47.8571 334.617 48.6912 335.453C49.5254 336.288 50.6569 336.758 51.8375 336.76H57.3662C57.407 336.882 57.4545 337.011 57.5021 337.134C57.5021 337.134 57.5021 337.134 57.4613 337.134L53.0125 341.066C52.5523 341.447 52.1734 341.917 51.8984 342.447C51.6234 342.978 51.4579 343.558 51.4117 344.154C51.3655 344.749 51.4396 345.348 51.6295 345.915C51.8194 346.481 52.1213 347.004 52.5173 347.451C52.9132 347.898 53.3951 348.262 53.9342 348.519C54.4734 348.776 55.0588 348.923 55.6556 348.949C56.2525 348.976 56.8486 348.882 57.4085 348.674C57.9684 348.465 58.4807 348.147 58.9148 347.736L63.3569 343.803L63.452 343.708C63.9373 343.967 64.4387 344.193 64.953 344.388V349.76C64.998 350.911 65.4867 351.999 66.3168 352.798C67.1468 353.596 68.2537 354.042 69.4053 354.042C70.5569 354.042 71.6637 353.596 72.4938 352.798C73.3238 351.999 73.8126 350.911 73.8575 349.76V344.394C74.1699 344.279 74.4756 344.157 74.7744 344.014L79.1282 347.77C79.5706 348.152 80.084 348.444 80.639 348.627C81.1939 348.811 81.7797 348.884 82.3628 348.841C82.9459 348.799 83.5149 348.642 84.0373 348.379C84.5597 348.117 85.0253 347.754 85.4075 347.312C85.7897 346.869 86.081 346.356 86.2648 345.801C86.4486 345.246 86.5213 344.66 86.4788 344.077C86.4362 343.494 86.2792 342.925 86.0167 342.402C85.7542 341.88 85.3914 341.414 84.949 341.032L81.0707 337.691C81.2134 337.385 81.3356 337.072 81.4511 336.76H87.1633C88.3438 336.758 89.4754 336.288 90.3095 335.453C91.1436 334.617 91.6121 333.485 91.6121 332.304C91.6121 331.72 91.497 331.142 91.2735 330.602C91.0499 330.062 90.7222 329.572 90.3091 329.159C89.896 328.745 89.4055 328.418 88.8658 328.194C88.326 327.971 87.7475 327.856 87.1633 327.856Z" fill="#C7B8F8"/>
<path id="Vector_71" d="M87.1633 327.856H81.3968C81.2881 327.557 81.1658 327.271 81.03 326.986L85.2547 323.25C86.095 322.456 86.5936 321.366 86.6451 320.211C86.6965 319.056 86.2969 317.926 85.5306 317.06C84.7643 316.194 83.6913 315.66 82.5384 315.57C81.3855 315.481 80.243 315.843 79.3523 316.581L74.9103 320.513C74.8434 320.578 74.78 320.646 74.7201 320.717C74.4416 320.588 74.1496 320.473 73.8575 320.364V314.978C73.8126 313.827 73.3238 312.738 72.4938 311.94C71.6637 311.142 70.5569 310.696 69.4053 310.696C68.2537 310.696 67.1468 311.142 66.3168 311.94C65.4867 312.738 64.998 313.827 64.953 314.978V320.364C64.5455 320.513 64.1448 320.69 63.7508 320.88C63.6239 320.727 63.4878 320.582 63.3433 320.445L58.8469 316.567C58.4082 316.158 57.8915 315.842 57.3278 315.638C56.7641 315.434 56.165 315.345 55.5663 315.378C54.9676 315.411 54.3817 315.564 53.8436 315.829C53.3056 316.093 52.8265 316.464 52.435 316.918C52.0435 317.372 51.7477 317.901 51.5653 318.472C51.3829 319.043 51.3177 319.645 51.3735 320.242C51.4293 320.839 51.6051 321.419 51.8902 321.946C52.1753 322.473 52.564 322.938 53.0329 323.312L57.5225 327.19C57.5616 327.219 57.6024 327.247 57.6447 327.271C57.5632 327.462 57.4885 327.659 57.4206 327.856H51.8375C50.6575 327.856 49.526 328.324 48.6916 329.159C47.8573 329.993 47.3886 331.124 47.3886 332.304C47.3886 333.485 47.8571 334.617 48.6912 335.453C49.5254 336.288 50.6569 336.758 51.8375 336.76H57.3662C57.407 336.882 57.4545 337.011 57.5021 337.134C57.5021 337.134 57.5021 337.134 57.4613 337.134L53.0125 341.066C52.5523 341.447 52.1734 341.917 51.8984 342.447C51.6234 342.978 51.4579 343.558 51.4117 344.154C51.3655 344.749 51.4396 345.348 51.6295 345.915C51.8194 346.481 52.1213 347.004 52.5173 347.451C52.9132 347.898 53.3951 348.262 53.9342 348.519C54.4734 348.776 55.0588 348.923 55.6556 348.949C56.2525 348.976 56.8486 348.882 57.4085 348.674C57.9684 348.465 58.4807 348.147 58.9148 347.736L63.3569 343.803L63.452 343.708C63.9373 343.967 64.4387 344.193 64.953 344.388V349.76C64.998 350.911 65.4867 351.999 66.3168 352.798C67.1468 353.596 68.2537 354.042 69.4053 354.042C70.5569 354.042 71.6637 353.596 72.4938 352.798C73.3238 351.999 73.8126 350.911 73.8575 349.76V344.394C74.1699 344.279 74.4756 344.157 74.7744 344.014L79.1282 347.77C79.5706 348.152 80.084 348.444 80.639 348.627C81.1939 348.811 81.7797 348.884 82.3628 348.841C82.9459 348.799 83.5149 348.642 84.0373 348.379C84.5597 348.117 85.0253 347.754 85.4075 347.312C85.7897 346.869 86.081 346.356 86.2648 345.801C86.4486 345.246 86.5213 344.66 86.4788 344.077C86.4362 343.494 86.2792 342.925 86.0167 342.402C85.7542 341.88 85.3914 341.414 84.949 341.032L81.0707 337.691C81.2134 337.385 81.3356 337.072 81.4511 336.76H87.1633C88.3438 336.758 89.4754 336.288 90.3095 335.453C91.1436 334.617 91.6121 333.485 91.6121 332.304C91.6121 331.72 91.497 331.142 91.2735 330.602C91.0499 330.062 90.7222 329.572 90.3091 329.159C89.896 328.745 89.4055 328.418 88.8658 328.194C88.326 327.971 87.7475 327.856 87.1633 327.856Z" fill="#C7B8F8"/>
<path id="Vector_72" d="M87.1633 327.856H81.3968C81.2881 327.557 81.1658 327.271 81.03 326.986L85.2547 323.25C86.095 322.456 86.5936 321.366 86.6451 320.211C86.6965 319.056 86.2969 317.926 85.5306 317.06C84.7643 316.194 83.6913 315.66 82.5384 315.57C81.3855 315.481 80.243 315.843 79.3523 316.581L74.9103 320.513C74.8434 320.578 74.78 320.646 74.7201 320.717C74.4416 320.588 74.1496 320.473 73.8575 320.364V314.978C73.8126 313.827 73.3238 312.738 72.4938 311.94C71.6637 311.142 70.5569 310.696 69.4053 310.696C68.2537 310.696 67.1468 311.142 66.3168 311.94C65.4867 312.738 64.998 313.827 64.953 314.978V320.364C64.5455 320.513 64.1448 320.69 63.7508 320.88C63.6239 320.727 63.4878 320.582 63.3433 320.445L58.8469 316.567C58.4082 316.158 57.8915 315.842 57.3278 315.638C56.7641 315.434 56.165 315.345 55.5663 315.378C54.9676 315.411 54.3817 315.564 53.8436 315.829C53.3056 316.093 52.8265 316.464 52.435 316.918C52.0435 317.372 51.7477 317.901 51.5653 318.472C51.3829 319.043 51.3177 319.645 51.3735 320.242C51.4293 320.839 51.6051 321.419 51.8902 321.946C52.1753 322.473 52.564 322.938 53.0329 323.312L57.5225 327.19C57.5616 327.219 57.6024 327.247 57.6447 327.271C57.5632 327.462 57.4885 327.659 57.4206 327.856H51.8375C50.6575 327.856 49.526 328.324 48.6916 329.159C47.8573 329.993 47.3886 331.124 47.3886 332.304C47.3886 333.485 47.8571 334.617 48.6912 335.453C49.5254 336.288 50.6569 336.758 51.8375 336.76H57.3662C57.407 336.882 57.4545 337.011 57.5021 337.134C57.5021 337.134 57.5021 337.134 57.4613 337.134L53.0125 341.066C52.5523 341.447 52.1734 341.917 51.8984 342.447C51.6234 342.978 51.4579 343.558 51.4117 344.154C51.3655 344.749 51.4396 345.348 51.6295 345.915C51.8194 346.481 52.1213 347.004 52.5173 347.451C52.9132 347.898 53.3951 348.262 53.9342 348.519C54.4734 348.776 55.0588 348.923 55.6556 348.949C56.2525 348.976 56.8486 348.882 57.4085 348.674C57.9684 348.465 58.4807 348.147 58.9148 347.736L63.3569 343.803L63.452 343.708C63.9373 343.967 64.4387 344.193 64.953 344.388V349.76C64.998 350.911 65.4867 351.999 66.3168 352.798C67.1468 353.596 68.2537 354.042 69.4053 354.042C70.5569 354.042 71.6637 353.596 72.4938 352.798C73.3238 351.999 73.8126 350.911 73.8575 349.76V344.394C74.1699 344.279 74.4756 344.157 74.7744 344.014L79.1282 347.77C79.5706 348.152 80.084 348.444 80.639 348.627C81.1939 348.811 81.7797 348.884 82.3628 348.841C82.9459 348.799 83.5149 348.642 84.0373 348.379C84.5597 348.117 85.0253 347.754 85.4075 347.312C85.7897 346.869 86.081 346.356 86.2648 345.801C86.4486 345.246 86.5213 344.66 86.4788 344.077C86.4362 343.494 86.2792 342.925 86.0167 342.402C85.7542 341.88 85.3914 341.414 84.949 341.032L81.0707 337.691C81.2134 337.385 81.3356 337.072 81.4511 336.76H87.1633C88.3438 336.758 89.4754 336.288 90.3095 335.453C91.1436 334.617 91.6121 333.485 91.6121 332.304C91.6121 331.72 91.497 331.142 91.2735 330.602C91.0499 330.062 90.7222 329.572 90.3091 329.159C89.896 328.745 89.4055 328.418 88.8658 328.194C88.326 327.971 87.7475 327.856 87.1633 327.856Z" fill="#C7B8F8"/>
<path id="Vector_73" d="M87.1633 327.856H81.3968C81.2881 327.557 81.1658 327.271 81.03 326.986L85.2547 323.25C86.095 322.456 86.5936 321.366 86.6451 320.211C86.6965 319.056 86.2969 317.926 85.5306 317.06C84.7643 316.194 83.6913 315.66 82.5384 315.57C81.3855 315.481 80.243 315.843 79.3523 316.581L74.9103 320.513C74.8434 320.578 74.78 320.646 74.7201 320.717C74.4416 320.588 74.1496 320.473 73.8575 320.364V314.978C73.8126 313.827 73.3238 312.738 72.4938 311.94C71.6637 311.142 70.5569 310.696 69.4053 310.696C68.2537 310.696 67.1468 311.142 66.3168 311.94C65.4867 312.738 64.998 313.827 64.953 314.978V320.364C64.5455 320.513 64.1448 320.69 63.7508 320.88C63.6239 320.727 63.4878 320.582 63.3433 320.445L58.8469 316.567C58.4082 316.158 57.8915 315.842 57.3278 315.638C56.7641 315.434 56.165 315.345 55.5663 315.378C54.9676 315.411 54.3817 315.564 53.8436 315.829C53.3056 316.093 52.8265 316.464 52.435 316.918C52.0435 317.372 51.7477 317.901 51.5653 318.472C51.3829 319.043 51.3177 319.645 51.3735 320.242C51.4293 320.839 51.6051 321.419 51.8902 321.946C52.1753 322.473 52.564 322.938 53.0329 323.312L57.5225 327.19C57.5616 327.219 57.6024 327.247 57.6447 327.271C57.5632 327.462 57.4885 327.659 57.4206 327.856H51.8375C50.6575 327.856 49.526 328.324 48.6916 329.159C47.8573 329.993 47.3886 331.124 47.3886 332.304C47.3886 333.485 47.8571 334.617 48.6912 335.453C49.5254 336.288 50.6569 336.758 51.8375 336.76H57.3662C57.407 336.882 57.4545 337.011 57.5021 337.134C57.5021 337.134 57.5021 337.134 57.4613 337.134L53.0125 341.066C52.5523 341.447 52.1734 341.917 51.8984 342.447C51.6234 342.978 51.4579 343.558 51.4117 344.154C51.3655 344.749 51.4396 345.348 51.6295 345.915C51.8194 346.481 52.1213 347.004 52.5173 347.451C52.9132 347.898 53.3951 348.262 53.9342 348.519C54.4734 348.776 55.0588 348.923 55.6556 348.949C56.2525 348.976 56.8486 348.882 57.4085 348.674C57.9684 348.465 58.4807 348.147 58.9148 347.736L63.3569 343.803L63.452 343.708C63.9373 343.967 64.4387 344.193 64.953 344.388V349.76C64.998 350.911 65.4867 351.999 66.3168 352.798C67.1468 353.596 68.2537 354.042 69.4053 354.042C70.5569 354.042 71.6637 353.596 72.4938 352.798C73.3238 351.999 73.8126 350.911 73.8575 349.76V344.394C74.1699 344.279 74.4756 344.157 74.7744 344.014L79.1282 347.77C79.5706 348.152 80.084 348.444 80.639 348.627C81.1939 348.811 81.7797 348.884 82.3628 348.841C82.9459 348.799 83.5149 348.642 84.0373 348.379C84.5597 348.117 85.0253 347.754 85.4075 347.312C85.7897 346.869 86.081 346.356 86.2648 345.801C86.4486 345.246 86.5213 344.66 86.4788 344.077C86.4362 343.494 86.2792 342.925 86.0167 342.402C85.7542 341.88 85.3914 341.414 84.949 341.032L81.0707 337.691C81.2134 337.385 81.3356 337.072 81.4511 336.76H87.1633C88.3438 336.758 89.4754 336.288 90.3095 335.453C91.1436 334.617 91.6121 333.485 91.6121 332.304C91.6121 331.72 91.497 331.142 91.2735 330.602C91.0499 330.062 90.7222 329.572 90.3091 329.159C89.896 328.745 89.4055 328.418 88.8658 328.194C88.326 327.971 87.7475 327.856 87.1633 327.856Z" fill="#C7B8F8"/>
<path id="Vector_74" d="M22.0948 321.845C25.3508 321.845 27.9903 319.205 27.9903 315.949C27.9903 312.693 25.3508 310.054 22.0948 310.054C18.8388 310.054 16.1992 312.693 16.1992 315.949C16.1992 319.205 18.8388 321.845 22.0948 321.845Z" fill="white"/>
<path id="Vector_75" d="M69.5038 338.567C72.7598 338.567 75.3993 335.927 75.3993 332.671C75.3993 329.415 72.7598 326.776 69.5038 326.776C66.2477 326.776 63.6082 329.415 63.6082 332.671C63.6082 335.927 66.2477 338.567 69.5038 338.567Z" fill="white"/>
<path id="Vector_76" d="M77.2468 439.247C75.0383 439.247 72.8795 438.592 71.0432 437.365C69.2069 436.138 67.7757 434.394 66.9306 432.353C66.0854 430.313 65.8643 428.068 66.2951 425.902C66.726 423.736 67.7895 421.746 69.3511 420.185C70.9127 418.623 72.9024 417.56 75.0684 417.129C77.2344 416.698 79.4796 416.919 81.52 417.764C83.5603 418.609 85.3042 420.04 86.5312 421.877C87.7582 423.713 88.4131 425.872 88.4131 428.08C88.4095 431.041 87.2319 433.879 85.1386 435.972C83.0453 438.065 80.2072 439.243 77.2468 439.247ZM77.2468 419.631C75.5757 419.631 73.9421 420.126 72.5526 421.055C71.1631 421.983 70.0801 423.303 69.4406 424.847C68.8011 426.391 68.6338 428.09 68.9598 429.729C69.2858 431.368 70.0905 432.873 71.2722 434.055C72.4539 435.237 73.9594 436.041 75.5984 436.367C77.2374 436.693 78.9363 436.526 80.4803 435.887C82.0242 435.247 83.3438 434.164 84.2722 432.775C85.2007 431.385 85.6962 429.751 85.6962 428.08C85.6908 425.841 84.7989 423.695 83.2155 422.112C81.6321 420.528 79.4861 419.636 77.2468 419.631Z" fill="black"/>
<path id="Vector_77" d="M59.6552 457.823C58.1251 457.823 56.6294 457.369 55.3572 456.519C54.0849 455.669 53.0934 454.461 52.5078 453.047C51.9223 451.634 51.7691 450.078 52.0676 448.577C52.3661 447.077 53.1029 445.698 54.1848 444.616C55.2668 443.534 56.6452 442.798 58.1459 442.499C59.6466 442.201 61.2021 442.354 62.6157 442.939C64.0293 443.525 65.2375 444.516 66.0876 445.789C66.9377 447.061 67.3914 448.557 67.3914 450.087C67.3896 452.138 66.574 454.105 65.1235 455.555C63.6731 457.005 61.7064 457.821 59.6552 457.823ZM59.6552 445.067C58.6624 445.067 57.692 445.362 56.8666 445.913C56.0411 446.465 55.3978 447.249 55.0179 448.166C54.638 449.083 54.5386 450.092 54.7322 451.066C54.9259 452.039 55.404 452.934 56.1059 453.636C56.8079 454.338 57.7023 454.816 58.6759 455.01C59.6496 455.203 60.6588 455.104 61.576 454.724C62.4932 454.344 63.2771 453.701 63.8286 452.875C64.3802 452.05 64.6745 451.079 64.6745 450.087C64.6728 448.756 64.1433 447.48 63.2024 446.539C62.2615 445.598 60.9858 445.069 59.6552 445.067Z" fill="black"/>
</g>
</g>
</svg>
